<svg width="691" height="572" viewBox="0 0 691 572" fill="none" xmlns="http://www.w3.org/2000/svg">
<g id="teacher 1">
<path id="Vector" d="M690 36H1C0.734784 36 0.480429 35.8946 0.292892 35.7071C0.105356 35.5196 0 35.2652 0 35C0 34.7348 0.105356 34.4804 0.292892 34.2929C0.480429 34.1054 0.734784 34 1 34H690C690.265 34 690.52 34.1054 690.707 34.2929C690.895 34.4804 691 34.7348 691 35C691 35.2652 690.895 35.5196 690.707 35.7071C690.52 35.8946 690.265 36 690 36Z" fill="#CACACA"/>
<g id="dot">
<path id="Vector_2" d="M23.5079 22C29.583 22 34.5079 17.0751 34.5079 11C34.5079 4.92487 29.583 0 23.5079 0C17.4327 0 12.5079 4.92487 12.5079 11C12.5079 17.0751 17.4327 22 23.5079 22Z" fill="#3F3D56"/>
<path id="Vector_3" d="M61.5079 22C67.583 22 72.5079 17.0751 72.5079 11C72.5079 4.92487 67.583 0 61.5079 0C55.4327 0 50.5079 4.92487 50.5079 11C50.5079 17.0751 55.4327 22 61.5079 22Z" fill="#3F3D56"/>
<path id="Vector_4" d="M99.5079 22C105.583 22 110.508 17.0751 110.508 11C110.508 4.92487 105.583 0 99.5079 0C93.4327 0 88.5079 4.92487 88.5079 11C88.5079 17.0751 93.4327 22 99.5079 22Z" fill="#3F3D56"/>
</g>
<g id="p6">
<path id="Vector_5" d="M581 481C621.317 481 654 448.317 654 408C654 367.683 621.317 335 581 335C540.683 335 508 367.683 508 408C508 448.317 540.683 481 581 481Z" fill="#F0F0F0"/>
<path id="Vector_6" d="M597.513 438.551L596.717 429.719L564.297 426.226L560.192 437.527L548.553 441.888C548.131 442.044 547.729 442.25 547.355 442.501C545.031 442.711 542.822 443.609 541.01 445.079C541.275 445.298 541.54 445.509 541.805 445.719C541.86 445.774 541.924 445.819 541.979 445.865C542.72 446.441 543.478 447.008 544.246 447.547C544.448 447.694 544.649 447.84 544.859 447.977C546.545 449.171 548.29 450.279 550.089 451.296C551.807 452.274 553.572 453.176 555.382 454.002C558.708 455.522 562.154 456.761 565.686 457.705C566.18 457.842 566.674 457.97 567.168 458.089C568.027 458.299 568.895 458.501 569.764 458.665C571.519 459.031 573.296 459.317 575.094 459.525C577.737 459.845 580.396 460.004 583.058 460C584.878 460 586.679 459.93 588.461 459.79C591.593 459.537 594.704 459.064 597.769 458.373C597.878 458.345 597.988 458.327 598.098 458.29C602.792 457.214 607.355 455.626 611.703 453.554C612.37 453.234 613.037 452.905 613.695 452.567C615.314 451.735 616.887 450.839 618.413 449.879C618.962 449.541 619.501 449.193 620.041 448.827C611.748 443.25 599.707 439.255 597.513 438.551Z" fill="#504D49"/>
<path id="Ellipse 109" d="M579.24 420.633C592.134 420.633 602.586 410.181 602.586 397.287C602.586 384.393 592.134 373.941 579.24 373.941C566.346 373.941 555.894 384.393 555.894 397.287C555.894 410.181 566.346 420.633 579.24 420.633Z" fill="#F9A826" fill-opacity="0.65"/>
<path id="Path 696" d="M563.57 385.913C565.987 388.773 570.076 389.58 573.849 389.908C581.512 390.58 592.653 389.49 600.141 387.761C600.679 392.941 599.219 398.526 602.269 402.787C603.699 397.629 604.531 392.322 604.747 386.974C604.975 384.679 604.675 382.362 603.872 380.201C603.442 379.118 602.716 378.177 601.778 377.485C600.84 376.794 599.727 376.379 598.565 376.289C598.822 376.025 598.998 375.693 599.074 375.332C599.149 374.972 599.121 374.597 598.993 374.252C598.711 373.034 598.09 371.92 597.202 371.04C596.313 370.159 595.194 369.549 593.973 369.278L585.568 367.253C585.568 367.253 577.682 363.794 571.79 364.228C569.055 364.43 566.196 364.814 563.98 366.399C561.765 367.984 560.484 371.133 561.86 373.459C560.138 373.742 558.516 374.46 557.149 375.545C555.782 376.63 554.714 378.046 554.048 379.658C553.204 382.222 553.001 384.953 553.455 387.614C553.96 391.882 554.952 396.079 556.411 400.121L563.57 385.913Z" fill="#2F2E41"/>
</g>
<g id="p5">
<path id="Vector_7" d="M346 481C386.317 481 419 448.317 419 408C419 367.683 386.317 335 346 335C305.683 335 273 367.683 273 408C273 448.317 305.683 481 346 481Z" fill="#F0F0F0"/>
<path id="Vector_8" d="M373.756 441.385L361.606 440.281L354.335 434.971C354.336 434.961 354.332 434.951 354.326 434.943L354.307 434.952L354.016 434.737L353.979 435.074L341.708 439.793L329.1 436.885L324.738 441.604L305.31 448.048C304.375 448.671 303.553 449.448 302.88 450.346L302.881 450.359C303.697 450.997 304.536 451.626 305.385 452.223C307.31 453.614 309.312 454.899 311.379 456.069C316.41 458.938 321.789 461.148 327.383 462.645C327.89 462.786 328.397 462.917 328.903 463.039C329.785 463.255 330.676 463.461 331.567 463.63C333.368 464.006 335.192 464.3 337.037 464.512C339.748 464.841 342.476 465.004 345.207 465C347.075 465 348.923 464.928 350.752 464.784C353.965 464.525 357.157 464.039 360.301 463.33C360.414 463.302 360.527 463.283 360.639 463.246C365.456 462.141 370.137 460.512 374.598 458.386C375.283 458.058 375.968 457.72 376.643 457.373C378.304 456.519 379.918 455.6 381.484 454.615C382.666 453.883 383.82 453.105 384.946 452.298C385.64 451.801 386.325 451.294 387 450.769L386.927 450.614C385.728 448.06 383.881 445.864 381.571 444.245C379.26 442.626 376.566 441.64 373.756 441.385Z" fill="#F9A826"/>
<path id="Vector_9" d="M362.15 380.748C360.732 379.344 359.132 378.135 357.394 377.155C346.652 371.227 334.917 371.123 325.198 376.865C322.781 378.288 320.575 380.041 318.64 382.071C313.187 387.762 310.134 395.334 310.113 403.216V426.594H371.259V400.824C371.259 393.919 367.46 385.927 362.15 380.748Z" fill="#2F2E41"/>
<path id="Vector_10" d="M339.478 425.956C351.674 425.956 361.562 416.068 361.562 403.872C361.562 391.675 351.674 381.788 339.478 381.788C327.281 381.788 317.394 391.675 317.394 403.872C317.394 416.068 327.281 425.956 339.478 425.956Z" fill="#FFB8B8"/>
<path id="Vector_11" d="M362.131 383.825C362.086 383.356 361.919 382.905 361.648 382.519C361.377 382.133 361.01 381.823 360.583 381.621C346.765 375.167 332.75 375.336 318.95 382.127H318.697L318.612 382.475C315.892 403.432 316.276 403.892 316.445 404.079C316.711 404.382 317.041 404.623 317.411 404.783C317.751 404.933 318.119 405.009 318.49 405.008H349.992L350.067 404.651C350.433 402.776 350.902 400.921 351.474 399.098C352.73 400.929 353.885 402.827 354.936 404.783L355.067 405.008H361.193C361.309 405.008 361.425 404.998 361.54 404.98C362.173 404.904 362.756 404.6 363.182 404.126C363.35 403.948 363.744 403.516 362.131 383.825Z" fill="#2F2E41"/>
</g>
<g id="p4">
<path id="Vector_12" d="M109 481C149.317 481 182 448.317 182 408C182 367.683 149.317 335 109 335C68.6832 335 36 367.683 36 408C36 448.317 68.6832 481 109 481Z" fill="#F0F0F0"/>
<path id="Vector_13" d="M107.805 418.471C118.951 418.471 127.986 409.436 127.986 398.29C127.986 387.144 118.951 378.109 107.805 378.109C96.6591 378.109 87.6236 387.144 87.6236 398.29C87.6236 409.436 96.6591 418.471 107.805 418.471Z" fill="#FFB8B8"/>
<path id="Vector_14" d="M88.7122 404.604C88.7122 404.604 90.4269 401.593 90.0282 391.533C89.6296 381.474 104.948 387.163 117.748 386.204C130.548 385.244 127.839 402.998 127.839 402.998C127.839 402.998 128.762 401.943 130.739 393.374C132.716 384.805 128.227 376.266 128.227 376.266C126.905 367.262 119.78 370.148 119.78 370.148C123.211 371.484 122.552 374.34 122.552 374.34C119.648 369.247 112.522 372.133 112.522 372.133C103.02 366.17 93.3885 374.023 93.3885 374.023C81.9085 376.628 88.641 385.758 88.641 385.758C77.096 391.592 88.7122 404.604 88.7122 404.604Z" fill="#2F2E41"/>
<path id="Vector_15" d="M141.479 445.655C135.727 442.623 129.722 440.096 123.533 438.102L122.744 429.372L90.738 425.924L86.6705 437.083L75.1845 441.393C74.7733 441.549 74.3818 441.753 74.0183 442H74.0059C72.1254 442.159 70.3144 442.785 68.7369 443.821C67.6669 444.504 66.7156 445.357 65.9204 446.347C67.4744 447.525 69.0885 448.617 70.7521 449.662L70.8254 449.698C71.299 449.989 71.7849 450.281 72.2699 450.56C73.1446 451.082 74.043 451.58 74.9415 452.053L75.5123 452.345C76.8233 453.025 78.1591 453.668 79.5312 454.263C79.8103 454.385 80.1143 454.506 80.3934 454.628C80.4173 454.64 80.4297 454.64 80.4534 454.652C81.0975 454.919 81.7407 455.174 82.3962 455.417C84.5501 456.239 86.747 456.945 88.9772 457.529C94.669 459.046 100.534 459.814 106.425 459.812C108.574 459.812 110.699 459.715 112.8 459.509C117.6 459.066 122.338 458.109 126.933 456.655C126.944 456.655 126.958 456.643 126.969 456.643C129.872 455.718 132.708 454.595 135.457 453.28C135.468 453.268 135.493 453.268 135.505 453.256C136.125 452.964 136.719 452.648 137.326 452.345L137.618 452.199C138.104 451.944 138.59 451.689 139.075 451.422C140.289 450.754 141.479 450.05 142.656 449.297C142.984 449.103 143.3 448.897 143.628 448.678C144.089 448.374 144.55 448.059 145 447.731C143.871 447.002 142.693 446.31 141.479 445.655Z" fill="#3726F9"/>
</g>
<g id="p3">
<path id="Vector_16" d="M581 280C621.317 280 654 247.317 654 207C654 166.683 621.317 134 581 134C540.683 134 508 166.683 508 207C508 247.317 540.683 280 581 280Z" fill="#F0F0F0"/>
<path id="Vector_17" d="M616.479 238.639C610.727 235.608 604.722 233.081 598.533 231.087L597.744 222.357L565.738 218.909L561.67 230.067L550.185 234.377C549.773 234.533 549.382 234.737 549.018 234.984H549.006C547.125 235.144 545.314 235.77 543.737 236.806C542.667 237.489 541.716 238.342 540.92 239.331C542.474 240.509 544.088 241.602 545.752 242.646L545.825 242.682C546.299 242.974 546.785 243.265 547.27 243.544C548.145 244.066 549.043 244.564 549.942 245.038L550.512 245.329C551.823 246.009 553.159 246.653 554.531 247.248C554.81 247.369 555.114 247.49 555.393 247.612C555.417 247.624 555.43 247.624 555.453 247.636C556.098 247.903 556.741 248.158 557.396 248.401C559.55 249.224 561.747 249.929 563.977 250.514C569.669 252.031 575.534 252.798 581.425 252.796C583.574 252.796 585.699 252.699 587.8 252.493C592.599 252.05 597.338 251.093 601.933 249.64C601.944 249.64 601.958 249.627 601.969 249.627C604.872 248.703 607.708 247.579 610.457 246.264C610.468 246.252 610.493 246.252 610.505 246.24C611.125 245.948 611.719 245.633 612.326 245.329L612.618 245.183C613.104 244.929 613.59 244.674 614.075 244.406C615.289 243.739 616.479 243.034 617.656 242.282C617.984 242.087 618.3 241.881 618.628 241.662C619.089 241.359 619.55 241.043 620 240.715C618.871 239.987 617.693 239.295 616.479 238.639Z" fill="#DAD1C3"/>
<path id="Vector_18" d="M580.485 213.389C593.216 213.389 603.536 203.069 603.536 190.338C603.536 177.608 593.216 167.287 580.485 167.287C567.754 167.287 557.434 177.608 557.434 190.338C557.434 203.069 567.754 213.389 580.485 213.389Z" fill="#A0616A"/>
<path id="Vector_19" d="M565.009 179.111C567.395 181.935 571.433 182.731 575.158 183.058C582.723 183.722 593.724 182.645 601.117 180.938C601.645 186.053 600.206 191.567 603.219 195.774C604.631 190.681 605.452 185.442 605.666 180.161C605.891 177.895 605.595 175.608 604.801 173.474C604.376 172.404 603.66 171.475 602.734 170.793C601.808 170.11 600.709 169.701 599.562 169.611C601.279 168.308 603.291 167.448 605.419 167.107L598.1 163.429L599.979 161.499L586.728 160.688L590.566 158.25C584.79 157.457 578.946 157.272 573.131 157.7C570.431 157.899 567.608 158.279 565.42 159.843C563.232 161.408 561.968 164.517 563.326 166.815C561.625 167.094 560.024 167.802 558.675 168.874C557.325 169.945 556.271 171.343 555.612 172.935C554.779 175.466 554.578 178.163 555.027 180.789C555.526 185.004 556.505 189.147 557.946 193.139L565.009 179.111Z" fill="#2F2E41"/>
</g>
<g id="p2">
<path id="Vector_20" d="M346 280C386.317 280 419 247.317 419 207C419 166.683 386.317 134 346 134C305.683 134 273 166.683 273 207C273 247.317 305.683 280 346 280Z" fill="#F0F0F0"/>
<path id="Ellipse 188" d="M350.049 167.476C355.432 167.476 359.796 163.112 359.796 157.729C359.796 152.347 355.432 147.983 350.049 147.983C344.667 147.983 340.303 152.347 340.303 157.729C340.303 163.112 344.667 167.476 350.049 167.476Z" fill="#2F2E41"/>
<path id="Path 969" d="M341.594 162.8C340.362 161.648 339.449 160.197 338.946 158.586C338.443 156.976 338.366 155.263 338.723 153.615C339.08 151.966 339.859 150.438 340.984 149.181C342.108 147.923 343.54 146.979 345.138 146.441C343.799 146.637 342.516 147.109 341.369 147.828C340.223 148.547 339.239 149.497 338.48 150.618C337.721 151.738 337.204 153.004 336.961 154.336C336.719 155.667 336.756 157.034 337.071 158.351C337.386 159.667 337.972 160.903 338.791 161.98C339.61 163.057 340.644 163.952 341.828 164.607C343.012 165.263 344.32 165.664 345.668 165.787C347.015 165.909 348.374 165.749 349.656 165.317C348.209 165.531 346.733 165.415 345.337 164.98C343.941 164.544 342.661 163.798 341.593 162.799L341.594 162.8Z" fill="#2F2E41"/>
<path id="Ellipse 189" d="M350.246 220.179C366.058 220.179 378.876 207.361 378.876 191.549C378.876 175.736 366.058 162.918 350.246 162.918C334.434 162.918 321.615 175.736 321.615 191.549C321.615 207.361 334.434 220.179 350.246 220.179Z" fill="#2F2E41"/>
<path id="Path 970" d="M324.775 175.785C329.709 170.237 336.605 166.822 344.008 166.262C351.411 165.702 358.742 168.04 364.454 172.782C364.22 172.56 363.987 172.335 363.745 172.119C358.09 167.053 350.653 164.44 343.071 164.857C335.489 165.273 328.383 168.685 323.316 174.34C318.25 179.996 315.637 187.433 316.054 195.015C316.471 202.597 319.882 209.703 325.538 214.769C325.592 214.818 325.646 214.866 325.701 214.915C325.944 215.131 326.194 215.335 326.442 215.542C321.063 210.424 317.883 203.418 317.572 196C317.261 188.582 319.845 181.334 324.777 175.785H324.775Z" fill="#2F2E41"/>
<path id="Ellipse 190" d="M350.003 219.936C360.187 219.936 368.443 211.681 368.443 201.497C368.443 191.313 360.187 183.057 350.003 183.057C339.819 183.057 331.564 191.313 331.564 201.497C331.564 211.681 339.819 219.936 350.003 219.936Z" fill="#A0616A"/>
<path id="Vector_21" d="M383 249.541V255.728C381.867 256.452 380.723 257.129 379.556 257.771C379.089 258.028 378.622 258.273 378.156 258.518L377.875 258.658C377.291 258.95 376.719 259.254 376.124 259.534C376.113 259.545 376.089 259.545 376.077 259.557C373.435 260.821 370.708 261.901 367.917 262.791C367.906 262.791 367.895 262.802 367.883 262.802C363.464 264.2 358.909 265.12 354.294 265.546C352.275 265.744 350.232 265.837 348.166 265.837C342.503 265.839 336.863 265.101 331.391 263.643C328.6 262.909 325.862 261.984 323.197 260.876C323.173 260.864 323.161 260.865 323.138 260.853C322.869 260.736 322.577 260.619 322.309 260.503C320.99 259.931 319.706 259.312 318.445 258.658L317.897 258.378C316.554 257.666 315.235 256.919 313.939 256.113L313.869 256.078C311.874 254.835 309.949 253.483 308.102 252.028C307.157 251.304 306.246 250.545 305.359 249.751C304.892 249.354 304.425 248.934 303.982 248.526C302.276 246.95 300.659 245.282 299.137 243.529C299.339 242.313 299.635 241.115 300.024 239.945L300.036 239.934C300.106 239.734 300.187 239.54 300.281 239.35C300.345 239.183 300.419 239.019 300.503 238.86C302.592 234.949 306.375 233.98 311.067 233.77C313.717 233.653 316.647 233.782 319.741 233.747C321.375 233.735 323.068 233.677 324.761 233.525C335.442 232.556 333.504 226.252 333.983 222.855C334.461 219.563 337.426 222.412 337.625 222.599L337.636 222.61C343.681 225.439 350.368 226.611 357.014 226.007C358.158 225.867 359.302 225.785 360.446 225.75C363.458 225.715 362.805 226.579 361.766 227.291C361.262 227.623 360.735 227.92 360.19 228.179C360.19 228.179 359.711 231.097 359.221 235.463C358.754 239.642 373.474 241.09 376.358 242H376.369C378.015 242.605 379.484 243.612 380.642 244.929C381.8 246.246 382.61 247.831 383 249.541V249.541Z" fill="#5DF926"/>
<path id="Ellipse 191" d="M331.321 200.284C332.125 200.284 332.776 199.089 332.776 197.615C332.776 196.141 332.125 194.947 331.321 194.947C330.517 194.947 329.865 196.141 329.865 197.615C329.865 199.089 330.517 200.284 331.321 200.284Z" fill="#A0616A"/>
<path id="Ellipse 192" d="M368.687 200.284C369.491 200.284 370.142 199.089 370.142 197.615C370.142 196.141 369.491 194.947 368.687 194.947C367.883 194.947 367.231 196.141 367.231 197.615C367.231 199.089 367.883 200.284 368.687 200.284Z" fill="#A0616A"/>
<path id="Vector_22" d="M369.924 187.386C369.216 185.117 367.636 183.222 365.532 182.116C363.445 181.032 361.215 180.248 358.909 179.787C354.877 178.627 350.699 178.055 346.504 178.089C342.32 178.295 338.043 179.739 335.201 182.816C332.359 185.892 331.305 190.777 333.376 194.418L333.147 195.36C336.465 195.754 339.827 195.179 342.826 193.702C345.824 192.225 348.33 189.911 350.04 187.039C351.609 189.517 353.837 191.509 356.475 192.791C359.114 194.072 362.057 194.593 364.975 194.296C365.906 194.22 366.813 193.96 367.642 193.528C368.625 192.879 369.376 191.934 369.786 190.83C370.197 189.726 370.245 188.519 369.924 187.386V187.386Z" fill="#2F2E41"/>
</g>
<g id="p1">
<path id="Vector_23" d="M109 280C149.317 280 182 247.317 182 207C182 166.683 149.317 134 109 134C68.6832 134 36 166.683 36 207C36 247.317 68.6832 280 109 280Z" fill="#F0F0F0"/>
<path id="Vector_24" d="M85.6448 212.112L89.1478 224.247L133.914 223.457L133.522 201.223C133.211 183.624 120.773 168.445 103.175 168.756C85.5762 169.066 74.3862 183.944 74.6967 201.543L77.2532 224.457L84.552 224.328L85.6448 212.112Z" fill="#2F2E41"/>
<path id="Vector_25" d="M105.175 220.597C116.268 220.597 125.261 211.605 125.261 200.512C125.261 189.419 116.268 180.427 105.175 180.427C94.0824 180.427 85.0899 189.419 85.0899 200.512C85.0899 211.605 94.0824 220.597 105.175 220.597Z" fill="#FFB8B8"/>
<path id="Vector_26" d="M127.163 186.408C127.136 184.871 126.655 183.375 125.779 182.11C125.687 181.98 125.594 181.859 125.501 181.739C124.757 180.789 123.803 180.024 122.714 179.504C121.626 178.984 120.431 178.722 119.225 178.74L104.789 179L90.3616 179.251C88.2948 179.292 86.3285 180.15 84.8931 181.638C83.4577 183.126 82.67 185.121 82.7025 187.188L86.1377 194.105L88.115 198.078L88.44 197.893C100.926 190.874 106.033 190.781 122.558 197.308L122.892 197.438L124.201 194.086L127.172 186.483L127.163 186.408Z" fill="#2F2E41"/>
<path id="Vector_27" d="M145.155 231.834C140.847 227.536 126.271 229.244 126.271 229.244L87.7997 231.667C79.2674 232.298 71.5804 239.131 68.7954 241.898C69.2406 242.334 69.696 242.761 70.1607 243.17C78.7101 250.768 89.4569 255.447 100.844 256.529C112.231 257.611 123.666 255.039 133.494 249.186C137.616 246.725 142.89 243.776 146.195 240.331C147.504 238.976 148.552 239.003 149.712 237.518C148.844 235.182 147.245 233.189 145.155 231.834V231.834Z" fill="#F92626"/>
</g>
<g id="hamburger">
<path id="Vector_28" d="M667.232 6.72833H640.232C639.702 6.72833 639.193 6.51762 638.818 6.14255C638.443 5.76747 638.232 5.25877 638.232 4.72833C638.232 4.1979 638.443 3.68919 638.818 3.31412C639.193 2.93904 639.702 2.72833 640.232 2.72833H667.232C667.763 2.72833 668.271 2.93904 668.646 3.31412C669.022 3.68919 669.232 4.1979 669.232 4.72833C669.232 5.25877 669.022 5.76747 668.646 6.14255C668.271 6.51762 667.763 6.72833 667.232 6.72833Z" fill="#3F3D56"/>
<path id="Vector_29" d="M667.232 21.7283H640.232C639.702 21.7283 639.193 21.5176 638.818 21.1425C638.443 20.7675 638.232 20.2588 638.232 19.7283C638.232 19.1979 638.443 18.6892 638.818 18.3141C639.193 17.939 639.702 17.7283 640.232 17.7283H667.232C667.763 17.7283 668.271 17.939 668.646 18.3141C669.022 18.6892 669.232 19.1979 669.232 19.7283C669.232 20.2588 669.022 20.7675 668.646 21.1425C668.271 21.5176 667.763 21.7283 667.232 21.7283Z" fill="#3F3D56"/>
<path id="Vector_30" d="M667.232 14.2283H640.232C639.702 14.2283 639.193 14.0176 638.818 13.6425C638.443 13.2675 638.232 12.7588 638.232 12.2283C638.232 11.6979 638.443 11.1892 638.818 10.8141C639.193 10.439 639.702 10.2283 640.232 10.2283H667.232C667.763 10.2283 668.271 10.439 668.646 10.8141C669.022 11.1892 669.232 11.6979 669.232 12.2283C669.232 12.7588 669.022 13.2675 668.646 13.6425C668.271 14.0176 667.763 14.2283 667.232 14.2283Z" fill="#3F3D56"/>
</g>
</g>
</svg>
