<svg width="1920" height="1080" viewBox="0 0 1920 1080" fill="none" xmlns="http://www.w3.org/2000/svg">
<g clip-path="url(#clip0_2_2)">
<path d="M787.711 407.222C906.589 -69.1093 648.301 -553.917 210.808 -675.626C-226.685 -797.335 -677.712 -509.857 -796.59 -33.5261C-915.469 442.805 -657.181 927.612 -219.688 1049.32C217.805 1171.03 668.832 883.553 787.711 407.222Z" fill="#EED300"/>
<path d="M684.969 414.235C803.847 -62.0964 539.916 -548.474 95.4618 -672.12C-348.992 -795.765 -805.663 -509.857 -924.541 -33.5263C-1043.42 442.805 -779.488 929.182 -335.034 1052.83C109.42 1176.47 566.091 890.566 684.969 414.235Z" fill="#FFE72F"/>
<path d="M569.824 418.294C689.076 -57.9374 421.108 -545.102 -28.7004 -669.819C-478.508 -794.536 -939.823 -509.577 -1059.07 -33.3454C-1178.33 442.886 -910.359 930.051 -460.551 1054.77C-10.7425 1179.48 450.572 894.525 569.824 418.294Z" fill="url(#paint0_linear_2_2)"/>
</g>
<defs>
<linearGradient id="paint0_linear_2_2" x1="-316.639" y1="1281.46" x2="935.398" y2="-469.995" gradientUnits="userSpaceOnUse">
<stop offset="0.0184935" stop-color="#FFF7B5"/>
<stop offset="0.239387" stop-color="#FFFFFC" stop-opacity="0.741008"/>
<stop offset="0.623857" stop-color="white" stop-opacity="0.339872"/>
</linearGradient>
<clipPath id="clip0_2_2">
<rect width="1920" height="1080" fill="white"/>
</clipPath>
</defs>
</svg>
