<svg width="1141" height="788" viewBox="0 0 1141 788" fill="none" xmlns="http://www.w3.org/2000/svg">
<g id="undraw_maker_launch_crhe 1" clip-path="url(#clip0_2_2)">
<g id="Rocket">
<path id="Vector" d="M198.273 608.96C195.707 609.416 193.194 610.133 190.773 611.1C136.833 632.64 137.733 773.64 137.733 773.64H121.853C121.853 773.64 116.853 713.13 95.0631 626.8C75.4331 549.13 155.943 479.52 172.293 466.32C174.133 464.85 175.153 464.07 175.153 464.07C256.243 493.87 198.273 608.96 198.273 608.96Z" fill="#AFC0E0"/>
<path id="Vector_2" opacity="0.2" d="M181.053 466.52C179.183 465.66 177.253 464.84 175.203 464.09C175.203 464.09 174.203 464.87 172.343 466.34C155.993 479.54 75.4831 549.15 95.1131 626.82C116.903 713.15 121.853 773.64 121.853 773.64H130.783C130.783 773.64 125.833 713.13 103.993 626.8C84.4431 549.49 164.173 480.14 181.053 466.52Z" fill="white"/>
<path id="Vector_3" d="M465.813 626.82C443.973 713.15 439.053 773.64 439.053 773.64H423.143C423.143 773.64 424.143 626.28 366.413 609.83C365.163 609.455 363.89 609.158 362.603 608.94C362.603 608.94 304.603 493.85 385.723 464.07C385.723 464.07 386.543 464.68 388.023 465.87C403.053 477.9 485.663 548.25 465.813 626.82Z" fill="#AFC0E0"/>
<path id="Vector_4" opacity="0.1" d="M198.273 608.96C195.707 609.416 193.194 610.133 190.773 611.1C181.021 563.374 174.844 514.986 172.293 466.34C174.133 464.87 175.153 464.09 175.153 464.09C256.243 493.87 198.273 608.96 198.273 608.96Z" fill="black"/>
<path id="Vector_5" opacity="0.1" d="M388.053 465.89C384.747 514.394 377.52 562.552 366.443 609.89C365.193 609.515 363.92 609.217 362.633 609C362.633 609 304.633 493.91 385.753 464.13C385.723 464.09 386.543 464.7 388.053 465.89Z" fill="black"/>
<path id="Vector_6" d="M358.363 630.78C352.763 652.873 346.2 675.54 338.673 698.78C338.673 698.78 302.953 735.99 216.673 698.78C216.673 698.78 208.053 674.48 198.573 633.17C177.703 542.34 152.673 369.25 206.003 191.46C221.884 138.013 244.456 86.7869 273.183 39C273.183 39 318.743 91.31 352.183 191.43C385.623 291.55 406.903 439.5 358.363 630.78Z" fill="#E3E8F4"/>
<path id="Vector_7" d="M280.433 404.23C319.993 404.23 352.063 372.16 352.063 332.6C352.063 293.04 319.993 260.97 280.433 260.97C240.873 260.97 208.803 293.04 208.803 332.6C208.803 372.16 240.873 404.23 280.433 404.23Z" fill="#AFC0E0"/>
<path id="Vector_8" d="M331.233 332.64C331.233 342.26 328.501 351.682 323.356 359.81C318.211 367.938 310.863 374.438 302.168 378.554C293.473 382.67 283.789 384.233 274.24 383.06C264.692 381.887 255.674 378.028 248.233 371.93C244.601 368.939 241.398 365.463 238.713 361.6C237.507 359.874 236.412 358.074 235.433 356.21C231.623 348.938 229.636 340.85 229.643 332.64C229.643 332.23 229.643 331.83 229.643 331.43C229.904 320.567 233.637 310.072 240.295 301.485C246.953 292.897 256.187 286.668 266.643 283.71C270.636 282.61 274.744 281.985 278.883 281.85H280.403C287.076 281.846 293.684 283.157 299.85 285.707C306.016 288.258 311.62 291.998 316.34 296.715C321.06 301.431 324.805 307.032 327.36 313.196C329.916 319.36 331.232 325.967 331.233 332.64Z" fill="#F9A826"/>
<path id="Vector_9" d="M352.173 191.43C270.903 230.34 205.953 191.43 205.953 191.43C221.852 137.991 244.441 86.775 273.183 39C273.183 39 318.743 91.31 352.173 191.43Z" fill="#AFC0E0"/>
<path id="Vector_10" d="M358.363 630.78C354.563 645.74 350.33 660.957 345.663 676.43C343.45 683.81 341.116 691.25 338.663 698.75C338.663 698.75 302.943 735.96 216.663 698.75C216.663 698.75 213.863 690.86 209.663 676.43C206.523 665.53 202.613 650.92 198.533 633.14C198.533 633.14 230.653 646.85 276.243 646.85C304.407 646.947 332.313 641.486 358.363 630.78V630.78Z" fill="#AFC0E0"/>
<path id="Vector_11" d="M345.663 676.43C343.45 683.81 341.116 691.25 338.663 698.75C338.663 698.75 302.943 735.96 216.663 698.75C216.663 698.75 213.863 690.86 209.663 676.43C209.653 676.43 297.593 701.73 345.663 676.43Z" fill="#E3E8F4"/>
<path id="Vector_12" opacity="0.2" d="M266.673 283.64L266.563 283.72L229.663 331.36C229.663 331.76 229.663 332.16 229.663 332.57C229.656 340.78 231.643 348.868 235.453 356.14L278.933 281.78L266.673 283.64Z" fill="white"/>
<path id="Vector_13" opacity="0.2" d="M278.453 326.64L248.233 371.89C244.601 368.899 241.398 365.423 238.713 361.56L274.713 322.92L278.453 326.64Z" fill="white"/>
<path id="Vector_14" opacity="0.2" d="M235.973 698.76C235.973 698.76 227.353 674.45 217.873 633.15C197.003 542.31 171.973 369.22 225.303 191.43C239.638 143.324 259.381 96.9983 284.153 53.34C277.383 43.85 273.153 39.01 273.153 39.01C244.422 86.783 221.843 137.995 205.953 191.43C152.623 369.22 177.653 542.31 198.523 633.15C208.003 674.45 216.623 698.76 216.623 698.76C250.713 713.45 276.903 716.53 296.123 714.89C279.703 713.64 259.763 709.01 235.973 698.76Z" fill="white"/>
<g id="EL" filter="url(#filter0_d_2_2)">
<path d="M283.28 536H243.32V485.6H283.28V495.68H256.28V505.4H277.52V515.48H256.28V525.92H283.28V536ZM301.983 525.92H328.263V536H289.023V485.6H301.983V525.92Z" fill="#F9A826"/>
</g>
</g>
<g id="man">
<path id="Vector_15" d="M598.936 694.492L595.028 714.805L667.697 740.319L673.465 710.339L598.936 694.492Z" fill="#FFB6B6"/>
<path id="Vector_16" d="M606.242 690.652L598.545 730.655L598.544 730.657C597.243 737.418 593.44 743.358 587.973 747.172C582.505 750.985 575.82 752.36 569.389 750.992L568.601 750.825L581.203 685.328L606.242 690.652Z" fill="#2F2E41"/>
<path id="Ellipse 276" d="M681.285 414.695C708.535 414.695 730.627 391.471 730.627 362.824C730.627 334.176 708.535 310.953 681.285 310.953C654.034 310.953 631.942 334.176 631.942 362.824C631.942 391.471 654.034 414.695 681.285 414.695Z" fill="#FEB8B8"/>
<path id="Path 1461" d="M727.371 318.074C719.994 305.481 708.446 296.201 694.951 292.022L688.894 296.669V290.635C685.653 290.113 682.372 289.912 679.096 290.035L673.87 295.006V290.448C666.132 291.459 658.677 294.144 651.976 298.334C645.274 302.525 639.471 308.129 634.933 314.795C623.584 331.995 621.668 355.924 632.831 373.262C635.895 363.362 639.614 354.073 642.679 344.174C645.087 344.519 647.528 344.531 649.94 344.211L653.668 335.066L654.709 343.824C666.265 342.766 683.405 340.442 694.359 338.313L693.294 331.594L699.667 337.177C703.023 336.365 705.016 335.628 704.852 335.065C712.999 348.873 722.97 357.692 731.117 371.5C734.211 352.03 737.772 335.841 727.371 318.074Z" fill="#2F2E41"/>
<path id="Ellipse 260" d="M697.339 702.257C767.506 702.257 824.387 685.531 824.387 664.898C824.387 644.265 767.506 627.539 697.339 627.539C627.172 627.539 570.29 644.265 570.29 664.898C570.29 685.531 627.172 702.257 697.339 702.257Z" fill="#2F2E41"/>
<path id="Vector_17" d="M787.406 496.212C785.709 485.481 783.959 474.544 779.215 464.877C776.096 458.545 771.147 452.511 764.475 451.259C763.161 451.136 761.869 450.821 760.637 450.325C758.682 449.335 732.41 433.569 728.234 430.823C724.649 428.465 718.99 424.101 716.136 424.101C713.265 424.034 702.256 426.728 659.289 423.197C652.062 426.247 645.063 429.864 638.352 434.019C638.213 433.923 593.756 459.02 592.085 458.954C588.922 458.814 585.982 460.943 584.169 463.624C582.356 466.305 581.506 469.624 580.615 472.833C590.325 495.566 599.21 518.328 608.921 541.061C609.376 541.917 609.617 542.88 609.624 543.861C609.428 544.879 609.015 545.836 608.415 546.661C603.653 554.703 603.805 564.818 604.325 574.27C604.845 583.722 605.489 593.706 601.471 602.178C600.378 604.504 598.957 606.633 597.917 608.959C595.483 614.227 594.603 631.076 596.025 636.736L774.162 642.101C770.332 631.033 787.406 496.212 787.406 496.212Z" fill="#F9A826"/>
<path id="Path 1421" d="M565.217 542.069C564.862 544.772 564.826 547.511 565.111 550.223L567.664 588.769C567.903 592.402 568.139 596.026 568.464 599.65C569.076 606.683 569.991 613.66 571.127 620.627C571.153 621.616 571.551 622.554 572.234 623.235C572.917 623.916 573.829 624.285 574.77 624.26C586.009 626.76 597.62 626.66 609.091 625.979C626.594 624.952 671.373 623.009 674.108 619.273C676.844 615.537 675.25 609.494 671.683 606.473C668.115 603.452 609.023 596.087 609.023 596.087C609.6 591.277 611.342 586.747 612.994 582.18C615.962 574.08 618.734 565.714 618.788 557.037C618.841 548.36 615.731 539.237 608.97 534.266C603.408 530.185 596.247 529.428 589.469 529.596C584.538 529.745 576.018 528.503 571.513 530.53C567.949 532.18 565.883 538.4 565.217 542.069Z" fill="#FBBEBE"/>
<path id="Path 1423" d="M787.722 629.202C790.68 628.016 793.941 628.445 797.112 628.894C807.321 630.36 817.68 631.864 827.142 636.151C831.585 638.151 835.814 640.821 838.817 644.751C841.48 648.291 843.037 652.625 844.512 656.893L847.924 666.719C849.375 670.41 850.375 674.279 850.901 678.235C851.967 689.994 844.317 701.08 834.695 707.189C825.073 713.298 813.746 715.473 802.71 717.752C791.675 720.031 780.597 722.552 769.607 725.224C764.481 726.622 759.28 727.698 754.032 728.446C742.269 729.846 729.973 727.783 718.796 731.874C714.354 733.509 709.991 735.937 705.383 737.067C702.321 737.744 699.224 738.24 696.108 738.552L674.954 741.092C670.652 741.697 666.322 742.046 661.983 742.138C652.743 742.138 643.654 739.838 634.682 737.538C633.729 737.362 632.821 736.977 632.019 736.408C630.597 735.231 630.286 733.148 630.082 731.262C629.176 722.912 628.383 714.553 627.704 706.185C627.491 703.467 627.331 700.525 628.743 698.237C630.52 695.437 633.986 694.557 637.149 694.015C650.56 691.708 664.147 690.717 677.734 691.054C682.895 685.628 691.407 685.6 698.168 682.648C700.656 681.447 703.063 680.071 705.374 678.529C717.468 671.111 730.984 666.622 744.936 665.388C747.669 665.3 750.384 664.893 753.03 664.174C758.262 662.465 763.035 657.813 768.409 658.953C769.075 657.02 769.538 654.432 771.073 653.106C771.834 652.424 772.778 651.967 773.48 651.238C774.964 649.66 775.098 647.175 774.875 644.971C774.652 642.767 774.155 640.507 774.697 638.358C774.923 637.544 775.255 636.768 775.684 636.051C778.339 631.219 782.364 628.735 787.722 629.202Z" fill="#2F2E41"/>
<path id="Path 1430" d="M580.101 473.525C579.236 474.477 578.565 475.606 578.129 476.841C570.948 493.855 566.706 512.079 565.602 530.657C565.622 531.563 565.423 532.459 565.025 533.263C564.632 533.797 564.195 534.294 563.719 534.748C563.304 535.265 562.989 535.864 562.794 536.509C562.599 537.154 562.526 537.834 562.581 538.508C562.635 539.183 562.816 539.84 563.112 540.441C563.407 541.043 563.813 541.577 564.305 542.013C564.386 542.085 564.469 542.154 564.554 542.22C566.02 539.32 569.529 538.372 572.648 538.12C587.583 536.878 602.171 544.182 617.15 543.631C616.094 539.792 614.574 536.103 613.712 532.218C609.9 514.967 619.407 496.185 613.579 479.569C612.414 476.244 610.469 472.975 607.404 471.518C606.135 470.98 604.807 470.61 603.451 470.418C599.666 469.699 592.131 466.626 588.471 467.859C587.121 468.317 586.588 469.652 585.468 470.459C583.767 471.601 581.511 472.021 580.101 473.525Z" fill="#F9A826"/>
<path id="Path 1421_2" d="M787.512 530.53C783.008 528.503 774.488 529.745 769.556 529.596C762.779 529.428 755.618 530.185 750.056 534.266C743.294 539.237 740.185 548.36 740.238 557.037C740.291 565.714 743.063 574.08 746.031 582.18C747.683 586.747 749.425 591.277 750.003 596.087C750.003 596.087 690.91 603.452 687.343 606.473C683.776 609.494 682.181 615.537 684.917 619.273C687.653 623.009 773.017 626.76 784.256 624.26C785.197 624.285 786.109 623.916 786.792 623.235C787.475 622.554 787.873 621.616 787.898 620.627C789.034 613.66 789.949 606.683 790.562 599.65C790.886 596.026 791.122 592.402 791.362 588.769L793.915 550.223C794.2 547.511 794.164 544.772 793.808 542.069C793.143 538.4 791.076 532.18 787.512 530.53Z" fill="#FBBEBE"/>
<path id="Path 1430_2" d="M773.557 470.459C772.438 469.652 771.905 468.317 770.554 467.859C766.895 466.626 759.36 469.699 755.575 470.418C754.219 470.61 752.891 470.98 751.622 471.518C748.557 472.975 746.611 476.244 745.447 479.569C739.619 496.185 749.126 514.967 745.314 532.218C744.452 536.103 742.932 539.792 741.875 543.631C756.854 544.182 771.443 536.878 786.377 538.12C789.496 538.372 793.006 539.32 794.471 542.22C794.556 542.154 794.639 542.085 794.72 542.013C795.212 541.577 795.618 541.043 795.914 540.441C796.21 539.84 796.39 539.183 796.445 538.508C796.499 537.834 796.427 537.154 796.232 536.509C796.036 535.864 795.722 535.265 795.307 534.748C794.83 534.294 794.393 533.797 794.001 533.263C793.602 532.459 793.404 531.563 793.423 530.657C792.32 512.079 788.078 493.855 780.896 476.841C780.461 475.606 779.79 474.477 778.924 473.525C777.515 472.021 775.258 471.601 773.557 470.459Z" fill="#F9A826"/>
<path id="Vector_18" d="M798.539 723.489L795.942 744.032L719.33 743.277L723.164 712.957L798.539 723.489Z" fill="#FFB6B6"/>
<path id="Vector_19" d="M818.144 720.896L809.769 787.136L808.972 787.025C802.468 786.116 796.573 782.528 792.585 777.05C788.597 771.573 786.842 764.654 787.706 757.816L787.706 757.815L792.821 717.357L818.144 720.896Z" fill="#2F2E41"/>
<path id="Path 1427" d="M618.302 639.598C618.302 640.532 616.908 639.598 616.78 638.598C615.804 631.042 610.099 624.812 603.454 621.786C596.808 618.76 589.238 618.601 582.042 619.32C571.159 620.403 558.942 624.784 554.962 635.478C554.02 637.978 545.198 660.238 546.059 665.244C548.378 678.6 557.067 690.023 567.595 697.934C578.124 705.845 590.425 710.571 602.696 714.834C635.14 726.082 668.426 734.44 702.203 739.818C707.676 740.687 713.203 741.49 718.444 743.339C723.135 744.992 727.524 747.467 732.109 749.41C742.77 753.91 754.241 755.518 765.603 757.097C767.54 757.359 769.761 757.545 771.192 756.163C773.04 754.363 772.428 751.222 771.902 748.635C769.974 738.798 771.592 728.559 776.443 719.906C778.345 716.544 780.818 713.097 780.459 709.206C780.033 704.667 775.732 701.454 771.45 700.725C767.167 699.996 762.814 701.071 758.513 701.659C757.038 702.015 755.494 701.854 754.115 701.201C753.476 700.747 752.896 700.207 752.391 699.595C749.429 696.591 745.638 694.65 741.561 694.051C737.485 693.452 733.333 694.226 729.7 696.261C728.11 697.195 725.705 695.112 724.05 694.328L705.365 685.436C683.901 675.228 662.329 664.972 639.62 658.509C637.808 658.134 636.086 657.381 634.555 656.295C633.427 655.361 632.619 654.095 631.579 653.054C629.313 650.803 626.157 649.906 623.441 648.309C620.725 646.712 617.68 642.801 618.302 639.598Z" fill="#2F2E41"/>
<path id="Vector_20" d="M666.671 626.101C674.026 626.101 679.988 619.833 679.988 612.101C679.988 604.369 674.026 598.101 666.671 598.101C659.316 598.101 653.353 604.369 653.353 612.101C653.353 619.833 659.316 626.101 666.671 626.101Z" fill="#FBBEBE"/>
<path id="Vector_21" d="M696.16 626.101C703.515 626.101 709.477 619.833 709.477 612.101C709.477 604.369 703.515 598.101 696.16 598.101C688.805 598.101 682.842 604.369 682.842 612.101C682.842 619.833 688.805 626.101 696.16 626.101Z" fill="#FBBEBE"/>
<path id="Vector_22" d="M778.365 643.648H595.403C593.267 643.645 591.219 642.752 589.709 641.164C588.198 639.576 587.348 637.424 587.346 635.178V518.492C587.348 516.246 588.198 514.093 589.709 512.505C591.219 510.917 593.267 510.024 595.403 510.022H778.365C780.501 510.024 782.549 510.917 784.06 512.505C785.57 514.093 786.42 516.246 786.422 518.492V635.178C786.42 637.424 785.57 639.576 784.06 641.164C782.549 642.752 780.501 643.645 778.365 643.648Z" fill="#3F3D56"/>
<g id="EL_2" filter="url(#filter1_d_2_2)">
<path d="M685.37 590.111H665.39V564.911H685.37V569.951H671.87V574.811H682.49V579.851H671.87V585.071H685.37V590.111ZM694.722 585.071H707.862V590.111H688.242V564.911H694.722V585.071Z" fill="#F9A826"/>
</g>
</g>
</g>
<defs>
<filter id="filter0_d_2_2" x="239.32" y="485.6" width="92.9431" height="58.4" filterUnits="userSpaceOnUse" color-interpolation-filters="sRGB">
<feFlood flood-opacity="0" result="BackgroundImageFix"/>
<feColorMatrix in="SourceAlpha" type="matrix" values="0 0 0 0 0 0 0 0 0 0 0 0 0 0 0 0 0 0 127 0" result="hardAlpha"/>
<feOffset dy="4"/>
<feGaussianBlur stdDeviation="2"/>
<feComposite in2="hardAlpha" operator="out"/>
<feColorMatrix type="matrix" values="0 0 0 0 0 0 0 0 0 0 0 0 0 0 0 0 0 0 0.25 0"/>
<feBlend mode="normal" in2="BackgroundImageFix" result="effect1_dropShadow_2_2"/>
<feBlend mode="normal" in="SourceGraphic" in2="effect1_dropShadow_2_2" result="shape"/>
</filter>
<filter id="filter1_d_2_2" x="661.39" y="564.911" width="50.4716" height="33.2" filterUnits="userSpaceOnUse" color-interpolation-filters="sRGB">
<feFlood flood-opacity="0" result="BackgroundImageFix"/>
<feColorMatrix in="SourceAlpha" type="matrix" values="0 0 0 0 0 0 0 0 0 0 0 0 0 0 0 0 0 0 127 0" result="hardAlpha"/>
<feOffset dy="4"/>
<feGaussianBlur stdDeviation="2"/>
<feComposite in2="hardAlpha" operator="out"/>
<feColorMatrix type="matrix" values="0 0 0 0 0 0 0 0 0 0 0 0 0 0 0 0 0 0 0.25 0"/>
<feBlend mode="normal" in2="BackgroundImageFix" result="effect1_dropShadow_2_2"/>
<feBlend mode="normal" in="SourceGraphic" in2="effect1_dropShadow_2_2" result="shape"/>
</filter>
<clipPath id="clip0_2_2">
<rect width="1140.56" height="787.27" fill="white"/>
</clipPath>
</defs>
</svg>
