<svg width="284" height="378" viewBox="0 0 284 378" fill="none" xmlns="http://www.w3.org/2000/svg">
<g id="Book">
<path id="Vector" opacity="0.1" d="M254.223 378L12.0543 377.608C5.43689 377.608 0.00908888 371.886 0.0834423 364.909L0.529567 40.9206L267.756 41.3126L267.31 364.203C267.31 371.807 261.436 378 254.223 378Z" fill="black"/>
<path id="Vector_2" d="M254.223 364.046L12.0543 363.655C5.43689 363.655 0.00908888 357.932 0.0834423 350.955L0.529567 26.9671L267.756 27.3591L267.31 350.25C267.31 357.932 261.436 364.046 254.223 364.046Z" fill="#046277"/>
<path id="Vector_3" d="M257.197 350.407L14.6567 350.015V323.205L267.31 323.597V339.745C267.31 345.703 262.774 350.407 257.197 350.407Z" fill="#F2F2F2"/>
<path id="Vector_4" d="M254.298 337.002L0.0834045 336.61L0.52953 14.1112C0.52953 6.35049 6.55216 0.000854492 13.9131 0.000854492L254.744 0.392807C261.956 0.392807 267.756 6.58566 267.756 14.1895L267.31 323.362C267.31 330.887 261.436 337.002 254.298 337.002Z" fill="#0093BC"/>
<path id="Vector_5" d="M38.3014 336.688L0.00939941 336.61L0.455519 12.6217C0.455519 5.64491 5.88332 -0.0775946 12.5008 0.000795907L38.7475 0.0791853L38.3014 336.688Z" fill="#026F91"/>
<path id="Vector_6" d="M206.265 137.263L89.1588 137.106C83.8054 137.106 79.4185 132.481 79.4185 126.837L79.4929 60.4399C79.4929 54.7958 83.8797 50.1708 89.2332 50.1708L206.34 50.3275C211.693 50.3275 216.08 54.9526 216.08 60.5967L216.006 126.993C216.006 132.716 211.693 137.341 206.265 137.263Z" fill="#026F91"/>
<path id="Vector_7" d="M210.806 237.464L84.3307 237.271L84.3215 244.013L210.797 244.206L210.806 237.464Z" fill="#026F91"/>
<path id="Vector_8" d="M210.806 256.983L84.3306 256.791L84.3214 263.532L210.797 263.725L210.806 256.983Z" fill="#026F91"/>
<path id="Vector_9" d="M210.806 276.424L84.3308 276.231L84.3215 282.973L210.797 283.166L210.806 276.424Z" fill="#026F91"/>
<path id="Vector_10" d="M210.806 295.944L84.3307 295.751L84.3214 302.492L210.797 302.685L210.806 295.944Z" fill="#026F91"/>
<path id="Vector_11" d="M14.6661 336.621L0.0185089 336.599L1.91914e-05 350.082L14.6476 350.104L14.6661 336.621Z" fill="#026F91"/>
<path id="Vector_12" d="M284 23.844L267.717 23.8192L267.647 74.6947L283.93 74.7195L284 23.844Z" fill="#FBB03B"/>
<g id="A Smart Learning Plartform" filter="url(#filter0_d_1_2)">
<path d="M96.5928 178.394V180H91.917V178.394H93.1338L92.6826 176.76H90.2148L89.709 178.394H90.9805V180H86.7695V178.394H87.9453L89.7979 172.098H88.5332V170.491H94.7402V172.098H93.4619L95.458 178.394H96.5928ZM92.293 175.365L91.5 172.501L90.6455 175.365H92.293ZM100.742 180V176.76H102.355C102.374 177.352 102.529 177.79 102.82 178.072C103.112 178.35 103.445 178.489 103.818 178.489C104.11 178.489 104.356 178.389 104.557 178.188C104.757 177.983 104.857 177.744 104.857 177.471C104.857 177.179 104.759 176.935 104.563 176.739C104.368 176.539 104.01 176.311 103.49 176.056C102.392 175.522 101.645 175.053 101.248 174.647C100.856 174.242 100.66 173.695 100.66 173.007C100.66 172.177 100.92 171.535 101.439 171.079C101.959 170.623 102.549 170.396 103.21 170.396C103.966 170.396 104.552 170.689 104.967 171.277V170.491H106.573V173.383H104.967C104.917 172.936 104.762 172.592 104.502 172.351C104.247 172.104 103.948 171.981 103.606 171.981C103.342 171.981 103.119 172.052 102.937 172.193C102.754 172.335 102.663 172.519 102.663 172.747C102.663 172.943 102.738 173.13 102.889 173.308C103.039 173.481 103.479 173.729 104.208 174.053C104.91 174.367 105.448 174.652 105.821 174.907C106.2 175.158 106.498 175.486 106.717 175.892C106.936 176.293 107.045 176.757 107.045 177.286C107.045 178.225 106.771 178.931 106.225 179.405C105.678 179.879 105.031 180.116 104.283 180.116C103.449 180.116 102.807 179.809 102.355 179.193V180H100.742ZM107.92 174.914V173.383H111.126V173.923C111.846 173.494 112.562 173.28 113.272 173.28C114.125 173.28 114.785 173.583 115.255 174.189C116.107 173.583 116.998 173.28 117.928 173.28C118.479 173.28 118.926 173.383 119.268 173.588C119.614 173.788 119.851 174.06 119.979 174.401C120.106 174.743 120.17 175.26 120.17 175.953V178.476H121.264V180H118.058V176.124C118.058 175.431 117.759 175.085 117.162 175.085C116.693 175.085 116.185 175.235 115.638 175.536V178.476H116.731V180H113.525V176.186C113.525 175.452 113.238 175.085 112.664 175.085C112.217 175.085 111.705 175.235 111.126 175.536V178.476H112.22V180H107.92V178.476H109.014V174.914H107.92ZM129.344 178.476V180H126.165V179.48C125.595 179.891 124.994 180.096 124.36 180.096C123.704 180.096 123.137 179.909 122.658 179.535C122.184 179.161 121.947 178.66 121.947 178.031C121.947 177.398 122.198 176.867 122.699 176.438C123.201 176.01 123.848 175.796 124.641 175.796C125.083 175.796 125.591 175.908 126.165 176.131V175.728C126.165 175.39 126.051 175.115 125.823 174.9C125.595 174.682 125.29 174.572 124.907 174.572C124.433 174.572 124.028 174.745 123.69 175.092L121.988 174.784C122.48 173.741 123.549 173.219 125.194 173.219C125.832 173.219 126.361 173.292 126.78 173.438C127.2 173.579 127.512 173.763 127.717 173.991C127.922 174.219 128.065 174.47 128.147 174.743C128.234 175.012 128.277 175.452 128.277 176.062V178.476H129.344ZM126.165 177.553C125.655 177.234 125.247 177.074 124.941 177.074C124.7 177.074 124.479 177.145 124.278 177.286C124.082 177.427 123.984 177.632 123.984 177.901C123.984 178.143 124.064 178.35 124.224 178.523C124.383 178.697 124.588 178.783 124.839 178.783C125.231 178.783 125.673 178.553 126.165 178.093V177.553ZM134.573 178.476V180H129.918V178.476H131.142V174.914H129.993V173.383H133.076V175.064C133.195 174.581 133.464 174.164 133.883 173.813C134.307 173.458 134.806 173.28 135.38 173.28C135.476 173.28 135.59 173.283 135.722 173.287V175.283C135.188 175.283 134.753 175.342 134.416 175.461C134.079 175.579 133.801 175.839 133.582 176.24C133.363 176.641 133.254 177.115 133.254 177.662V178.476H134.573ZM136.713 174.914V173.383H137.554V172.344L139.666 170.826V173.383H140.883V174.914H139.666V177.778C139.666 178.038 139.698 178.214 139.762 178.305C139.83 178.391 139.983 178.435 140.22 178.435C140.416 178.435 140.637 178.389 140.883 178.298V179.761C140.34 179.984 139.81 180.096 139.29 180.096C138.132 180.096 137.554 179.521 137.554 178.373V174.914H136.713ZM145.162 180V178.394H146.522V172.098H145.162V170.491H150.385V172.098H148.997V178.394H151.807V175.454H153.659V180H145.162ZM159.654 178.004L161.295 178.53C160.607 179.61 159.531 180.15 158.068 180.15C156.902 180.15 155.99 179.843 155.334 179.228C154.682 178.612 154.356 177.803 154.356 176.801C154.356 175.78 154.694 174.928 155.368 174.244C156.043 173.561 156.902 173.219 157.945 173.219C158.702 173.219 159.356 173.41 159.907 173.793C160.459 174.176 160.841 174.652 161.056 175.222C161.27 175.791 161.377 176.427 161.377 177.129H156.448C156.48 177.73 156.669 178.157 157.016 178.407C157.367 178.658 157.736 178.783 158.123 178.783C158.629 178.783 159.139 178.523 159.654 178.004ZM159.251 175.953C159.201 175.584 159.055 175.27 158.813 175.01C158.576 174.75 158.251 174.62 157.836 174.62C157.061 174.62 156.61 175.064 156.482 175.953H159.251ZM169.812 178.476V180H166.634V179.48C166.064 179.891 165.463 180.096 164.829 180.096C164.173 180.096 163.605 179.909 163.127 179.535C162.653 179.161 162.416 178.66 162.416 178.031C162.416 177.398 162.667 176.867 163.168 176.438C163.669 176.01 164.316 175.796 165.109 175.796C165.551 175.796 166.06 175.908 166.634 176.131V175.728C166.634 175.39 166.52 175.115 166.292 174.9C166.064 174.682 165.759 174.572 165.376 174.572C164.902 174.572 164.496 174.745 164.159 175.092L162.457 174.784C162.949 173.741 164.018 173.219 165.663 173.219C166.301 173.219 166.83 173.292 167.249 173.438C167.668 173.579 167.98 173.763 168.186 173.991C168.391 174.219 168.534 174.47 168.616 174.743C168.703 175.012 168.746 175.452 168.746 176.062V178.476H169.812ZM166.634 177.553C166.123 177.234 165.715 177.074 165.41 177.074C165.169 177.074 164.948 177.145 164.747 177.286C164.551 177.427 164.453 177.632 164.453 177.901C164.453 178.143 164.533 178.35 164.692 178.523C164.852 178.697 165.057 178.783 165.308 178.783C165.7 178.783 166.142 178.553 166.634 178.093V177.553ZM175.042 178.476V180H170.387V178.476H171.61V174.914H170.462V173.383H173.545V175.064C173.663 174.581 173.932 174.164 174.352 173.813C174.775 173.458 175.274 173.28 175.849 173.28C175.944 173.28 176.058 173.283 176.19 173.287V175.283C175.657 175.283 175.222 175.342 174.885 175.461C174.548 175.579 174.27 175.839 174.051 176.24C173.832 176.641 173.723 177.115 173.723 177.662V178.476H175.042ZM177.482 174.914V173.383H180.606V173.998C181.244 173.52 181.892 173.28 182.548 173.28C183.883 173.28 184.551 174.132 184.551 175.837V178.476H185.549V180H182.438V175.994C182.438 175.634 182.388 175.388 182.288 175.256C182.192 175.124 182.033 175.058 181.81 175.058C181.418 175.058 181.017 175.201 180.606 175.488V178.476H181.625V180H177.482V178.476H178.494V174.914H177.482ZM187.251 171.489C187.251 171.17 187.363 170.897 187.586 170.669C187.814 170.441 188.087 170.327 188.406 170.327C188.73 170.327 189.003 170.441 189.227 170.669C189.45 170.897 189.562 171.17 189.562 171.489C189.562 171.808 189.448 172.082 189.22 172.31C188.996 172.533 188.725 172.645 188.406 172.645C188.092 172.645 187.821 172.531 187.593 172.303C187.365 172.075 187.251 171.804 187.251 171.489ZM186.321 174.914V173.383H189.438V178.476H190.423V180H186.321V178.476H187.326V174.914H186.321ZM191.195 174.914V173.383H194.319V173.998C194.957 173.52 195.604 173.28 196.261 173.28C197.596 173.28 198.264 174.132 198.264 175.837V178.476H199.262V180H196.151V175.994C196.151 175.634 196.101 175.388 196.001 175.256C195.905 175.124 195.746 175.058 195.522 175.058C195.131 175.058 194.729 175.201 194.319 175.488V178.476H195.338V180H191.195V178.476H192.207V174.914H191.195ZM207.964 173.383V174.914H206.87V179.802C206.87 181.985 205.717 183.076 203.411 183.076C202.09 183.076 201.105 182.837 200.458 182.358L201.483 180.957C202.017 181.285 202.552 181.449 203.09 181.449C203.559 181.449 203.953 181.328 204.272 181.087C204.596 180.845 204.758 180.376 204.758 179.679V179.173C204.07 179.788 203.4 180.096 202.748 180.096C201.982 180.096 201.328 179.777 200.786 179.139C200.248 178.496 199.979 177.678 199.979 176.685C199.979 175.687 200.257 174.871 200.813 174.237C201.369 173.599 202.049 173.28 202.851 173.28C203.621 173.28 204.257 173.583 204.758 174.189V173.383H207.964ZM204.765 176.712C204.765 176.179 204.646 175.757 204.409 175.447C204.172 175.137 203.849 174.982 203.438 174.982C203.019 174.982 202.698 175.142 202.475 175.461C202.256 175.78 202.146 176.19 202.146 176.691C202.146 177.193 202.26 177.603 202.488 177.922C202.721 178.236 203.037 178.394 203.438 178.394C203.808 178.394 204.12 178.248 204.375 177.956C204.635 177.66 204.765 177.245 204.765 176.712ZM118.919 194.394V196H113.908V194.394H115.118V188.098H113.908V186.491H118.919C120.086 186.491 120.986 186.765 121.619 187.312C122.257 187.858 122.576 188.594 122.576 189.52C122.576 190.048 122.465 190.529 122.241 190.962C122.018 191.39 121.731 191.721 121.38 191.953C121.034 192.181 120.635 192.338 120.184 192.425C119.737 192.507 119.176 192.548 118.502 192.548H117.593V194.394H118.919ZM117.593 190.962H117.962C118.81 190.962 119.354 190.825 119.596 190.552C119.842 190.274 119.965 189.93 119.965 189.52C119.965 189.173 119.881 188.879 119.712 188.638C119.543 188.392 119.35 188.241 119.131 188.187C118.912 188.127 118.554 188.098 118.058 188.098H117.593V190.962ZM123.342 196V194.476H124.381V188.016H123.342V186.491H126.493V194.476H127.443V196H123.342ZM135.756 194.476V196H132.577V195.48C132.007 195.891 131.406 196.096 130.772 196.096C130.116 196.096 129.549 195.909 129.07 195.535C128.596 195.161 128.359 194.66 128.359 194.031C128.359 193.398 128.61 192.867 129.111 192.438C129.613 192.01 130.26 191.796 131.053 191.796C131.495 191.796 132.003 191.908 132.577 192.131V191.728C132.577 191.39 132.463 191.115 132.235 190.9C132.007 190.682 131.702 190.572 131.319 190.572C130.845 190.572 130.44 190.745 130.103 191.092L128.4 190.784C128.893 189.741 129.961 189.219 131.606 189.219C132.244 189.219 132.773 189.292 133.192 189.438C133.612 189.579 133.924 189.763 134.129 189.991C134.334 190.219 134.478 190.47 134.56 190.743C134.646 191.012 134.689 191.452 134.689 192.062V194.476H135.756ZM132.577 193.553C132.067 193.234 131.659 193.074 131.354 193.074C131.112 193.074 130.891 193.145 130.69 193.286C130.494 193.427 130.396 193.632 130.396 193.901C130.396 194.143 130.476 194.35 130.636 194.523C130.795 194.697 131 194.783 131.251 194.783C131.643 194.783 132.085 194.553 132.577 194.093V193.553ZM140.985 194.476V196H136.33V194.476H137.554V190.914H136.405V189.383H139.488V191.064C139.607 190.581 139.876 190.164 140.295 189.813C140.719 189.458 141.218 189.28 141.792 189.28C141.888 189.28 142.002 189.283 142.134 189.287V191.283C141.601 191.283 141.165 191.342 140.828 191.461C140.491 191.579 140.213 191.839 139.994 192.24C139.775 192.641 139.666 193.115 139.666 193.662V194.476H140.985ZM143.125 190.914V189.383H143.966V188.344L146.078 186.826V189.383H147.295V190.914H146.078V193.778C146.078 194.038 146.11 194.214 146.174 194.305C146.242 194.391 146.395 194.435 146.632 194.435C146.828 194.435 147.049 194.389 147.295 194.298V195.761C146.753 195.984 146.222 196.096 145.702 196.096C144.545 196.096 143.966 195.521 143.966 194.373V190.914H143.125ZM152.23 194.476V196H148.122V194.476H149.079V190.914H148.19V189.383H149.079V188.774C149.079 188.077 149.293 187.496 149.722 187.031C150.155 186.562 150.797 186.327 151.649 186.327C152.684 186.327 153.42 186.637 153.857 187.257L152.326 188.453C152.189 187.979 151.993 187.742 151.738 187.742C151.374 187.742 151.191 188.048 151.191 188.658V189.383H152.23V190.914H151.191V194.476H152.23ZM156.66 196.15C155.685 196.15 154.86 195.843 154.186 195.228C153.516 194.608 153.181 193.76 153.181 192.685C153.181 191.609 153.516 190.764 154.186 190.148C154.86 189.529 155.685 189.219 156.66 189.219C157.64 189.219 158.465 189.529 159.135 190.148C159.805 190.764 160.14 191.609 160.14 192.685C160.14 193.746 159.807 194.59 159.142 195.214C158.481 195.838 157.654 196.15 156.66 196.15ZM156.653 194.51C157.045 194.51 157.362 194.359 157.604 194.059C157.85 193.758 157.973 193.286 157.973 192.644C157.973 192.078 157.854 191.639 157.617 191.324C157.38 191.005 157.059 190.846 156.653 190.846C155.783 190.846 155.348 191.475 155.348 192.732C155.348 193.247 155.455 193.674 155.669 194.011C155.888 194.343 156.216 194.51 156.653 194.51ZM165.704 194.476V196H161.049V194.476H162.272V190.914H161.124V189.383H164.207V191.064C164.326 190.581 164.594 190.164 165.014 189.813C165.438 189.458 165.937 189.28 166.511 189.28C166.606 189.28 166.72 189.283 166.853 189.287V191.283C166.319 191.283 165.884 191.342 165.547 191.461C165.21 191.579 164.932 191.839 164.713 192.24C164.494 192.641 164.385 193.115 164.385 193.662V194.476H165.704ZM168.049 190.914V189.383H171.255V189.923C171.975 189.494 172.69 189.28 173.401 189.28C174.254 189.28 174.914 189.583 175.384 190.189C176.236 189.583 177.127 189.28 178.057 189.28C178.608 189.28 179.055 189.383 179.396 189.588C179.743 189.788 179.98 190.06 180.107 190.401C180.235 190.743 180.299 191.26 180.299 191.953V194.476H181.393V196H178.187V192.124C178.187 191.431 177.888 191.085 177.291 191.085C176.822 191.085 176.313 191.235 175.767 191.536V194.476H176.86V196H173.654V192.186C173.654 191.452 173.367 191.085 172.793 191.085C172.346 191.085 171.834 191.235 171.255 191.536V194.476H172.349V196H168.049V194.476H169.143V190.914H168.049Z" fill="white"/>
</g>
<g id="EL" filter="url(#filter1_d_1_2)">
<path d="M125.891 113.469C124.86 113.469 123.946 113.219 123.149 112.719C122.352 113.219 121.61 113.469 120.922 113.469C120.25 113.469 119.696 113.406 119.258 113.281C118.821 113.172 118.438 113.016 118.11 112.812C117.438 112.406 117.102 111.898 117.102 111.289C117.102 110.977 117.188 110.703 117.36 110.469C117.703 110.734 118.141 110.867 118.672 110.867C120.063 110.867 121.024 110.273 121.555 109.086V97.625C121.555 96.9062 121.407 96.375 121.11 96.0312C120.641 95.4531 119.836 94.8828 118.696 94.3203C119.758 93.8359 120.446 93.4062 120.758 93.0312C121.289 92.4219 121.555 91.7344 121.555 90.9688V81.0781C121.024 79.875 120.063 79.2734 118.672 79.2734C118.141 79.2734 117.703 79.4062 117.36 79.6719C117.188 79.4375 117.102 79.1719 117.102 78.875C117.102 78.5625 117.188 78.2734 117.36 78.0078C117.547 77.7422 117.797 77.5156 118.11 77.3281C118.828 76.8906 119.649 76.6719 120.571 76.6719C121.508 76.6719 122.367 76.9297 123.149 77.4453C123.961 76.9297 124.891 76.6719 125.938 76.6719C126.985 76.6719 127.938 76.9766 128.797 77.5859C130.453 76.9766 132.367 76.6719 134.539 76.6719C136.149 76.6719 137.524 76.8281 138.664 77.1406L140.75 77.7031C141 77.7656 141.242 77.7969 141.477 77.7969C141.914 77.7969 142.133 77.4844 142.133 76.8594C142.133 76.7031 142.078 76.4375 141.969 76.0625C142.407 75.9844 142.961 75.9453 143.633 75.9453C144.305 75.9453 144.875 76.1719 145.344 76.625C145.813 77.0625 146.047 77.7031 146.047 78.5469C146.047 79.375 145.899 79.9844 145.602 80.375C146.024 81 146.235 81.7656 146.235 82.6719C146.235 83.5625 145.93 84.3125 145.321 84.9219C145.508 85.3906 145.602 85.8516 145.602 86.3047C145.602 86.7422 145.524 87.1484 145.367 87.5234C145.227 87.8828 145.047 88.1875 144.828 88.4375C144.391 88.8906 143.946 89.1172 143.492 89.1172C142.836 89.1172 142.242 88.9766 141.711 88.6953C141.899 88.3203 141.992 87.7656 141.992 87.0312C141.992 85.3125 141.563 83.8047 140.703 82.5078C139.532 80.7266 137.774 79.8359 135.43 79.8359C134.242 79.8359 133.164 80.125 132.196 80.7031C131.242 81.2812 130.571 82.1094 130.18 83.1875V92.2578C130.727 92.6016 131.235 92.7734 131.703 92.7734C132.188 92.7734 132.547 92.7656 132.782 92.75C133.032 92.7344 133.282 92.7031 133.532 92.6562C134.172 92.5625 134.664 92.4375 135.008 92.2812C135.664 91.9688 135.992 91.2031 135.992 89.9844C135.992 89.2969 135.828 88.7656 135.5 88.3906C135.813 88.1719 136.203 88.0625 136.672 88.0625C137.719 88.0625 138.477 88.4844 138.946 89.3281C139.117 89.625 139.203 89.9531 139.203 90.3125C139.203 90.6719 139.11 91.1172 138.922 91.6484C139.563 92.3828 139.883 93.2578 139.883 94.2734C139.883 95.2734 139.563 96.1406 138.922 96.875C139.11 97.4062 139.203 97.8906 139.203 98.3281C139.203 98.75 139.117 99.1562 138.946 99.5469C138.774 99.9375 138.563 100.25 138.313 100.484C137.828 100.922 137.282 101.141 136.672 101.141C136.235 101.141 135.844 101.016 135.5 100.766C135.828 100.219 135.992 99.5781 135.992 98.8438C135.992 97.3906 135.594 96.4922 134.797 96.1484C134.094 95.8672 133.289 95.7266 132.383 95.7266C131.477 95.7266 130.742 95.8906 130.18 96.2188V107.938C131.086 109.531 132.836 110.328 135.43 110.328C138.367 110.328 140.367 109.422 141.43 107.609C142.664 105.531 143.282 103.305 143.282 100.93C143.282 100.242 143.219 99.7109 143.094 99.3359C143.485 98.9453 143.891 98.75 144.313 98.75C144.735 98.75 145.055 98.8125 145.274 98.9375C145.492 99.0469 145.688 99.1875 145.86 99.3594C146.235 99.7812 146.422 100.211 146.422 100.648L146.282 101.797C146.282 102.094 146.36 102.336 146.516 102.523C146.828 102.852 146.985 103.164 146.985 103.461C146.985 103.742 146.891 104.086 146.703 104.492C147.063 104.695 147.383 105 147.664 105.406C147.961 105.797 148.11 106.203 148.11 106.625C148.11 107.516 147.735 108.312 146.985 109.016C147.313 109.484 147.477 110.164 147.477 111.055C147.477 111.93 147.219 112.672 146.703 113.281C146.203 113.906 145.547 114.219 144.735 114.219C144.297 114.219 143.844 114.172 143.375 114.078C143.438 113.734 143.469 113.391 143.469 113.047C143.469 112.328 143.141 111.969 142.485 111.969C141.75 111.969 141.016 112.117 140.282 112.414C138.547 113.117 136.571 113.469 134.352 113.469C132.149 113.469 130.274 113.18 128.727 112.602C127.914 113.18 126.969 113.469 125.891 113.469ZM123.805 106.789C124.586 106.492 125.016 105.469 125.094 103.719C125.188 101.969 125.235 99.5469 125.235 96.4531C125.235 93.3594 125.227 91.3047 125.211 90.2891C125.211 89.2578 125.203 88.4297 125.188 87.8047C125.141 85.9609 124.961 84.8516 124.649 84.4766C124.352 84.0859 124.071 83.8281 123.805 83.7031C123.805 89.1406 123.711 92.2344 123.524 92.9844C123.305 93.6094 122.774 94.0547 121.93 94.3203C122.867 94.6484 123.399 95.0469 123.524 95.5156C123.711 96.2656 123.805 99.0078 123.805 103.742V106.789ZM129.711 106.555C129.711 106.602 129.719 106.641 129.735 106.672L129.711 106.555ZM159.688 113.469C158.657 113.469 157.742 113.219 156.946 112.719C156.149 113.219 155.407 113.469 154.719 113.469C154.047 113.469 153.492 113.406 153.055 113.281C152.617 113.172 152.235 113.016 151.907 112.812C151.235 112.406 150.899 111.898 150.899 111.289C150.899 110.977 150.985 110.703 151.157 110.469C151.5 110.734 151.938 110.867 152.469 110.867C153.86 110.867 154.821 110.273 155.352 109.086V97.625C155.352 96.9062 155.203 96.375 154.907 96.0312C154.438 95.4531 153.633 94.8828 152.492 94.3203C153.555 93.8359 154.242 93.4062 154.555 93.0312C155.086 92.4219 155.352 91.7344 155.352 90.9688V81.0781C154.821 79.875 153.86 79.2734 152.469 79.2734C151.938 79.2734 151.5 79.4062 151.157 79.6719C150.985 79.4375 150.899 79.1719 150.899 78.875C150.899 78.5625 150.985 78.2734 151.157 78.0078C151.344 77.7422 151.594 77.5156 151.907 77.3281C152.625 76.8906 153.446 76.6719 154.367 76.6719C155.305 76.6719 156.164 76.9297 156.946 77.4453C157.758 76.9297 158.664 76.6719 159.664 76.6719C160.664 76.6719 161.571 76.9297 162.383 77.4453C163.258 76.9297 164.055 76.6719 164.774 76.6719C165.492 76.6719 166.071 76.7344 166.508 76.8594C166.946 76.9688 167.328 77.125 167.657 77.3281C168.328 77.7344 168.664 78.2422 168.664 78.8516C168.664 79.1641 168.578 79.4375 168.407 79.6719C168.063 79.4062 167.602 79.2734 167.024 79.2734C166.446 79.2734 165.86 79.4297 165.266 79.7422C164.688 80.0391 164.258 80.4922 163.977 81.1016V90.9688C163.977 91.7344 164.141 92.3047 164.469 92.6797C164.985 93.2891 165.774 93.8359 166.836 94.3203C165.696 94.8828 164.969 95.3438 164.657 95.7031C164.203 96.2656 163.977 96.9062 163.977 97.625V107.867C165.008 109.508 166.297 110.328 167.844 110.328C171.672 110.328 174.133 108.703 175.227 105.453C175.711 104.016 175.953 102.703 175.953 101.516C175.953 100.312 175.789 99.5078 175.461 99.1016C175.821 98.8047 176.188 98.6562 176.563 98.6562C176.953 98.6562 177.313 98.7344 177.641 98.8906C177.969 99.0469 178.266 99.2812 178.532 99.5938C179.078 100.234 179.352 100.992 179.352 101.867C179.352 102.742 179.282 103.414 179.141 103.883C179.86 104.477 180.219 105.312 180.219 106.391C180.219 107.469 179.914 108.344 179.305 109.016C179.821 109.672 180.078 110.266 180.078 110.797C180.078 111.328 180 111.789 179.844 112.18C179.703 112.555 179.5 112.891 179.235 113.188C178.641 113.797 177.93 114.102 177.102 114.102C176.696 114.102 176.321 114.016 175.977 113.844C176.039 113.5 176.071 113.156 176.071 112.812C176.071 112.094 175.742 111.734 175.086 111.734C174.602 111.734 173.93 111.93 173.071 112.32C171.414 113.086 169.524 113.469 167.399 113.469C165.289 113.469 163.641 113.195 162.453 112.648C161.641 113.195 160.719 113.469 159.688 113.469ZM157.602 106.789C158.383 106.492 158.813 105.469 158.891 103.719C158.985 101.969 159.032 99.5469 159.032 96.4531C159.032 93.3594 159.024 91.3047 159.008 90.2891C159.008 89.2578 159 88.4297 158.985 87.8047C158.938 85.9609 158.758 84.8516 158.446 84.4766C158.149 84.0859 157.867 83.8281 157.602 83.7031C157.602 89.1406 157.508 92.2344 157.321 92.9844C157.102 93.6094 156.571 94.0547 155.727 94.3203C156.664 94.6484 157.196 95.0469 157.321 95.5156C157.508 96.2656 157.602 99.0078 157.602 103.742V106.789Z" fill="white"/>
</g>
</g>
<defs>
<filter id="filter0_d_1_2" x="82.7695" y="170.327" width="129.194" height="33.8232" filterUnits="userSpaceOnUse" color-interpolation-filters="sRGB">
<feFlood flood-opacity="0" result="BackgroundImageFix"/>
<feColorMatrix in="SourceAlpha" type="matrix" values="0 0 0 0 0 0 0 0 0 0 0 0 0 0 0 0 0 0 127 0" result="hardAlpha"/>
<feOffset dy="4"/>
<feGaussianBlur stdDeviation="2"/>
<feComposite in2="hardAlpha" operator="out"/>
<feColorMatrix type="matrix" values="0 0 0 0 0 0 0 0 0 0 0 0 0 0 0 0 0 0 0.5 0"/>
<feBlend mode="normal" in2="BackgroundImageFix" result="effect1_dropShadow_1_2"/>
<feBlend mode="normal" in="SourceGraphic" in2="effect1_dropShadow_1_2" result="shape"/>
</filter>
<filter id="filter1_d_1_2" x="111.102" y="73.9453" width="75.1172" height="50.2734" filterUnits="userSpaceOnUse" color-interpolation-filters="sRGB">
<feFlood flood-opacity="0" result="BackgroundImageFix"/>
<feColorMatrix in="SourceAlpha" type="matrix" values="0 0 0 0 0 0 0 0 0 0 0 0 0 0 0 0 0 0 127 0" result="hardAlpha"/>
<feOffset dy="4"/>
<feGaussianBlur stdDeviation="3"/>
<feComposite in2="hardAlpha" operator="out"/>
<feColorMatrix type="matrix" values="0 0 0 0 0 0 0 0 0 0 0 0 0 0 0 0 0 0 0.75 0"/>
<feBlend mode="normal" in2="BackgroundImageFix" result="effect1_dropShadow_1_2"/>
<feBlend mode="normal" in="SourceGraphic" in2="effect1_dropShadow_1_2" result="shape"/>
</filter>
</defs>
</svg>
