<svg width="251" height="265" viewBox="0 0 251 265" fill="none" xmlns="http://www.w3.org/2000/svg">
<g id="Group">
<path id="Vector" opacity="0.1" d="M102.68 264.9C159.388 264.9 205.36 223.782 205.36 173.061C205.36 122.339 159.388 81.2215 102.68 81.2215C45.9713 81.2215 0 122.339 0 173.061C0 223.782 45.9713 264.9 102.68 264.9Z" fill="black"/>
<path id="Vector_2" d="M102.68 241.417C159.388 241.417 205.36 200.299 205.36 149.578C205.36 98.8564 159.388 57.7386 102.68 57.7386C45.9713 57.7386 0 98.8564 0 149.578C0 200.299 45.9713 241.417 102.68 241.417Z" fill="#F2F2F2"/>
<path id="Vector_3" d="M205.36 77.0365H0V155.39H205.36V77.0365Z" fill="#F2F2F2"/>
<path id="Vector_4" d="M195.741 104.937H236.9V159.963H195.741" stroke="#F2F2F2" stroke-width="27" stroke-miterlimit="10" stroke-linecap="round" stroke-linejoin="round"/>
<path id="Vector_5" d="M102.68 153.918C159.388 153.918 205.36 119.462 205.36 76.959C205.36 34.4557 159.388 0 102.68 0C45.9713 0 0 34.4557 0 76.959C0 119.462 45.9713 153.918 102.68 153.918Z" fill="white"/>
<path id="Vector_6" d="M102.68 134.155C144.888 134.155 179.105 108.547 179.105 76.959C179.105 45.3704 144.888 19.7629 102.68 19.7629C60.4714 19.7629 26.2549 45.3704 26.2549 76.959C26.2549 108.547 60.4714 134.155 102.68 134.155Z" fill="#754C24"/>
<path id="Vector_7" d="M41.3319 85.1741C41.3319 53.5535 75.5585 27.978 117.757 27.978C131.274 27.978 144.012 30.6131 155.016 35.2632C141.326 25.653 122.956 19.7629 102.68 19.7629C60.4814 19.7629 26.2549 45.4159 26.2549 76.9589C26.2549 98.4269 42.0251 117.105 65.3338 126.947C50.5167 116.485 41.3319 101.604 41.3319 85.1741Z" fill="#603813"/>
</g>
</svg>
