<svg width="1920" height="1080" viewBox="0 0 1920 1080" fill="none" xmlns="http://www.w3.org/2000/svg">
<g id="FSVG" clip-path="url(#clip0_2_2)">
<path id="Vector" d="M1921.2 -0.200012H1.19995V1079.8H1921.2V-0.200012Z" fill="#CF9E73"/>
<g id="Group">
<path id="Vector_2" d="M-23.2999 44.1C169.6 56.3 364.3 68.4 555.3 38.9C569 36.8 583.2 34.5 596.5 38.5C604.7 41 612.1 45.8 620.3 48.5C629.8 51.6 639.9 51.8 649.9 51.9C840.6 54 1031.3 56.1 1222 58.3C1256.5 58.7 1291.3 59.1 1324.8 67C1333.8 69.1 1342.7 71.8 1351.8 73.1C1364.3 75 1377 74.4 1389.6 73.8C1582.4 65.1 1775.2 56.5 1968 47.8" stroke="#B7906C" stroke-width="2" stroke-miterlimit="10"/>
<path id="Vector_3" d="M-10.6 86.1C275.6 83.8 561.9 81.5 848.1 79.2C890.3 78.9 933.1 78.6 973.8 89.9C983.5 92.6 993.3 95.9 1003.3 94.8C1012 93.8 1019.8 89.5 1028.1 86.8C1041.6 82.5 1056.1 82.5 1070.3 82.6C1363.8 84.5 1657.2 86.5 1950.7 88.4" stroke="#B7906C" stroke-width="2" stroke-miterlimit="10"/>
<path id="Vector_4" d="M-32.2 135.1C41.7001 133.6 115.7 132 189.6 130.5C203.1 130.2 216.6 129.9 230.1 129.7C285.2 128.6 340.3 127.4 395.5 125.9C549.1 121.6 701.1 113.3 854.4 107.7C920.3 105.3 986.3 105.7 1052.3 107.5C1115.2 109.2 1183.1 120.7 1245.6 114.6C1369.2 102.6 1498.9 114.8 1623.6 117.4C1653.7 118 1684.3 118.7 1713.1 127.4C1722.3 130.1 1731.3 133.7 1740.9 134.8C1751.6 136 1762.3 134.1 1772.9 132.3C1833.7 122.3 1895.5 118.2 1957.1 120.3" stroke="#B7906C" stroke-width="4" stroke-miterlimit="10"/>
<path id="Vector_5" d="M-12.7 164.3C447.5 138 908.9 143.1 1369.9 148.2C1565.7 150.4 1761.5 152.5 1957.3 154.7" stroke="#B7906C" stroke-width="2" stroke-miterlimit="10"/>
<path id="Vector_6" d="M-26.7999 198.5C15.9001 184.6 63.6001 187 104.7 205.2C128 196.2 153.3 194.5 178.3 193.3C351.9 184.4 525.9 187.7 699.8 191.1C809.9 193.2 920 195.4 1030.1 197.5C1123.3 199.3 1216.4 201.1 1309.6 200.5C1326.1 200.4 1342.8 200.2 1358.7 195.8C1367.9 193.3 1376.6 189.3 1385.9 187.1C1396.7 184.5 1408 184.2 1419.2 183.9C1597.1 179.8 1774.9 175.7 1952.8 171.6" stroke="#B7906C" stroke-width="2" stroke-miterlimit="10"/>
<path id="Vector_7" d="M1931.4 206C1878.7 204.2 1825.9 202.4 1773.2 200.6C1745.3 199.7 1716.6 198.8 1690.6 208.7C1691.9 215.5 1696.5 221.2 1701.6 225.8C1716.9 239.5 1737.9 245.3 1758.4 246.9C1778.9 248.5 1799.5 246.3 1820 246.1C1870.2 245.7 1920.2 257.1 1970.4 253.8" stroke="#B7906C" stroke-width="2" stroke-miterlimit="10"/>
<path id="Vector_8" d="M1940 283C1844.3 282.2 1748.8 264.6 1659.1 231.1C1645.9 226.2 1632.8 220.9 1619.1 218.1C1600.4 214.2 1581 214.9 1561.9 215.5C1388.7 221.8 1215.6 230 1042.3 232.7C900 234.9 757.7 233.6 615.4 232.2C470.4 230.8 325.4 229.4 180.4 227.9C144.9 227.6 109.3 227.2 73.8 226.3C37.6 225.4 1.50005 224 -34.7 222.1" stroke="#B7906C" stroke-width="2" stroke-miterlimit="10"/>
<path id="Vector_9" d="M-32.2 933.1C41.7001 931.6 115.7 930 189.6 928.5C203.1 928.2 216.6 927.9 230.1 927.7C285.2 926.6 340.3 925.4 395.5 923.9C549.1 919.6 701.1 911.3 854.4 905.7C920.3 903.3 986.3 903.7 1052.3 905.5C1115.2 907.2 1183.1 918.7 1245.6 912.6C1369.2 900.6 1498.9 912.8 1623.6 915.4C1653.7 916 1684.3 916.7 1713.1 925.4C1722.3 928.1 1731.3 931.7 1740.9 932.8C1751.6 934 1762.3 932.1 1772.9 930.3C1833.7 920.3 1895.5 916.2 1957.1 918.3" stroke="#B7906C" stroke-width="3" stroke-miterlimit="10"/>
<path id="Vector_10" d="M-12.7 962.3C447.5 936 908.9 941.1 1369.9 946.2C1565.7 948.4 1761.5 950.5 1957.3 952.7" stroke="#B7906C" stroke-width="2" stroke-miterlimit="10"/>
<path id="Vector_11" d="M-26.7999 996.5C15.9001 982.6 63.6001 985 104.7 1003.2C128 994.2 153.3 992.5 178.3 991.3C351.9 982.4 525.9 985.7 699.8 989.1C809.9 991.2 920 993.4 1030.1 995.5C1123.3 997.3 1216.4 999.1 1309.6 998.5C1326.1 998.4 1342.8 998.2 1358.7 993.8C1367.9 991.3 1376.6 987.3 1385.9 985.1C1396.7 982.5 1408 982.2 1419.2 981.9C1597.1 977.8 1774.9 973.7 1952.8 969.6" stroke="#B7906C" stroke-width="4" stroke-miterlimit="10"/>
<path id="Vector_12" d="M1940 1081C1844.3 1080.2 1748.8 1062.6 1659.1 1029.1C1645.9 1024.2 1632.8 1018.9 1619.1 1016.1C1600.4 1012.2 1581 1012.9 1561.9 1013.6C1388.7 1019.9 1215.6 1028.1 1042.3 1030.8C900 1033 757.7 1031.7 615.4 1030.3C470.4 1028.9 325.4 1027.5 180.4 1026C144.9 1025.7 109.3 1025.3 73.8 1024.4C37.6 1023.5 1.50005 1022.1 -34.7 1020.2" stroke="#B7906C" stroke-width="2" stroke-miterlimit="10"/>
<path id="Vector_13" d="M-8.89995 272.3C20.5 279.6 50.1 286.3 79.8 292.4C81.1 297.2 77.2 302.1 72.5 303.9C67.9 305.7 62.7001 305.3 57.7001 305.4C32.6 305.8 7.90005 318.8 -16.7 314.1" stroke="#B7906C" stroke-width="2" stroke-miterlimit="10"/>
<path id="Vector_14" d="M-2.79993 251.8C398.7 290.4 803.4 226.6 1206.3 244.3C1234 245.5 1335.5 235.6 1349.3 263.8C1350.7 266.6 1351.5 269.8 1353.9 271.7C1357.6 274.7 1363.3 273.5 1367.2 270.8C1371.2 268.1 1374.2 264.2 1378.3 261.8C1396 251.1 1427.4 257.6 1446.9 258.9C1615.6 269.7 1784.7 280.4 1951.5 307.7" stroke="#B7906C" stroke-width="3" stroke-miterlimit="10"/>
<path id="Vector_15" d="M-24.2 359.2C33.9 362.7 83.1 318.3 139 301.9C166.2 293.9 194.8 292.7 223 291.5C347.5 286.2 472 281 596.6 275.7C624.1 274.5 651.6 273.4 679.1 272.2C804.5 266.9 930 261.6 1055.5 264.1C1103.6 265.1 1151.6 267.2 1199.7 269.8C1218.6 270.8 1237.5 266.9 1255.3 267.4C1275.5 268 1292.2 280.8 1310.8 287.4C1330.5 294.3 1351.8 294.4 1372.7 294.4C1399.9 294.4 1427.2 294.4 1454.4 294.4C1486.8 294.4 1517.6 273.4 1548.1 281.4C1584.9 291 1618.9 294.6 1657.7 297.1C1749 303 1840.3 309.4 1931.6 316.9" stroke="#B7906C" stroke-width="6" stroke-miterlimit="10"/>
<path id="Vector_16" d="M181.2 741.6C167.6 736 150.1 731 139.7 741.4C136.9 744.2 135 748.5 136.4 752.1C138.8 758.1 147.4 757.9 153.4 755.6C159.4 753.3 166.1 749.8 171.9 752.6C173.8 753.5 175.4 755.1 177.3 756C180.4 757.4 184.3 756.9 186.9 754.8C190.1 752.2 191.2 747.1 189.1 743.6C187 740.1 181.8 738.5 178.2 740.6" stroke="#B7906C" stroke-width="2" stroke-miterlimit="10"/>
<path id="Vector_17" d="M167.9 721.7C160 718.9 151.3 720.2 143 721.6C135.8 722.8 128.5 724 121.9 727.3C115.4 730.6 109.7 736.4 108.5 743.6C106.9 752.6 112.7 761.7 120.5 766.5C128.3 771.3 137.7 772.6 146.8 773.3C159.6 774.2 172.5 774 185.3 773.8C195.1 773.6 206.2 772.9 212.7 765.6C218.7 759 218.8 748.4 214.4 740.7C209.9 733 201.7 728 193 726C179.9 722.9 163.4 724.6 155.8 713.5" stroke="#B7906C" stroke-width="2" stroke-miterlimit="10"/>
<path id="Vector_18" d="M93.6 717.8C81 726 68.8 740 73 754.5C76.2 765.5 87.6 771.8 98.2 776.3C107.7 780.3 117.5 783.9 127.6 785.3C145.8 787.8 164.6 783.4 182.5 787.3C193.5 789.7 204.3 795.2 215.4 793.3C229.5 790.9 239.3 776.3 239.9 762C240.5 747.7 233.9 734 225.5 722.4C221.5 716.9 216.8 711.5 210.6 708.8C200.6 704.4 190.3 708.1 180 706.6C169.4 705 159.7 697.8 149.1 697.3C131.5 696.2 108 708.6 93.6 717.8Z" stroke="#B7906C" stroke-width="2" stroke-miterlimit="10"/>
<path id="Vector_19" d="M65.7 717.5C59 723.8 52.7 731 50 739.8C44.4 758.2 56.8 778.3 73.5 787.8C90.2 797.3 110.3 798.5 129.6 799C148.8 799.5 168.7 799.5 186.5 806.9C202.2 813.4 217.5 825.9 234.2 822.5C253 818.7 261.9 797.3 265.3 778.4C268.9 758.1 269.6 736.6 262.1 717.4C242.3 667.3 220.2 695.8 182.2 697.4C161.3 698.3 142.9 683.7 121.7 686.3C101.3 688.6 80.2 703.9 65.7 717.5Z" stroke="#B7906C" stroke-width="2" stroke-miterlimit="10"/>
<path id="Vector_20" d="M-14.2 742.8C30.2001 732.5 60.8 691 103.3 674.8C136 662.3 172.4 666 207.2 669.9C233.4 672.8 260.8 676.2 282.1 691.8C293.7 700.3 302.7 711.9 314.7 719.7C333.1 731.5 356.1 732.8 377.9 733.5C525.1 737.9 672.2 727.7 819.3 719.3C1035.3 706.9 1251.6 698.4 1468 693.8C1516.7 692.8 1565.8 691.9 1613.5 701.6C1635.6 706 1657.3 712.7 1679.7 714.6C1697.4 716.1 1715.2 714.6 1732.9 713.1C1747.6 711.8 1762.2 710.6 1776.9 709.3C1826.4 705.1 1875.9 700.8 1925.4 696.6" stroke="#B7906C" stroke-width="2" stroke-miterlimit="10"/>
<path id="Vector_21" d="M-19.7 766.5C-6.39995 763.8 6.90005 761.2 20.2001 758.5C21.5001 786.6 50.2 805.8 77.8 811.4C105.4 817 134.3 814 161.4 821.6C181.6 827.3 199.8 838.8 220.1 844.3C240.4 849.8 265.2 847.5 277.7 830.7C289.5 814.9 287.2 790.6 301.8 777.4C310.5 769.6 322.9 767.8 334.5 766.5C491.9 748.2 650.3 739.3 808.7 740C821.4 740.1 837.8 743.1 839.9 755.6C850.9 744 868.3 741.8 884.2 740.4C1035.8 727.2 1188.4 725.4 1340.3 734.8C1351.8 735.5 1363.4 736.3 1374.9 734.8C1380.3 734.1 1385.5 732.9 1390.9 732.1C1397.9 731.1 1405 731 1412.1 731C1530.3 729.9 1648.5 738.6 1765.2 756.8C1775.9 758.5 1786.9 760.2 1797.4 757.9C1808.7 755.4 1818.4 748.4 1828.9 743.3C1862.1 727.2 1901.1 731.2 1937.7 735.6" stroke="#B7906C" stroke-width="5" stroke-miterlimit="10"/>
<path id="Vector_22" d="M-9.59998 784.4C18 811.7 49.3 840.7 88.1 843C104.9 844 121.6 839.8 138.4 840.2C196.3 841.7 255.7 896.5 304.8 865.7C333.4 847.8 341.5 807.7 369.6 789C404.5 765.8 452.7 785.3 492.6 772.4C502.8 769.1 514.1 763.8 523.5 768.9C530.9 772.9 534.5 782.4 542.3 785.4C549.4 788.1 557.2 784.5 564.3 781.7C585.3 773.6 608.3 772.7 630.9 772C719.2 769.1 807.6 766.2 895.9 763.3C1142.6 755.2 1389.7 747.1 1636.2 760.2C1735 765.4 1835.2 774 1932 753.5" stroke="#B7906C" stroke-width="3" stroke-miterlimit="10"/>
<path id="Vector_23" d="M-13.5 725.1C40.9 684.7 100.1 642.6 167.8 641C237.5 639.3 300.2 681 367.5 699.4C427 715.6 489.7 713.5 551.3 710.3C916.3 691 1283.1 637.2 1645.7 682.9C1675.5 686.7 1705.7 685.2 1735.7 683.6C1795.3 680.6 1854.9 677.6 1914.6 674.6C1921.2 674.3 1927.4 680.2 1933.8 678.4C1940.2 676.6 1930.6 665.4 1931.3 672" stroke="#B7906C" stroke-width="2" stroke-miterlimit="10"/>
<path id="Vector_24" d="M-12.9 696.6C45.7 660.3 113.2 638.5 181.9 633.4C280.4 626.2 378 652.9 476.5 658.5C593.8 665.1 710.5 641.5 827.6 632.4C920.1 625.3 1012.9 627.2 1105.7 629.1C1224.7 631.6 1343.8 634 1462.8 636.5C1475.2 636.8 1486.6 637.1 1498.3 633.1C1508.7 629.5 1519.8 617.2 1531.7 620.4C1543 623.5 1548.8 634.6 1561.2 637.4C1573.4 640.2 1589.6 637 1602 636.8C1638.7 636.2 1675.4 635.6 1712.2 635.1C1785.6 633.9 1859.1 632.8 1932.5 631.6" stroke="#B7906C" stroke-width="2" stroke-miterlimit="10"/>
<path id="Vector_25" d="M449.7 688.1C513 679.6 576.7 674.5 640.5 672.9C724.9 670.8 809.4 674.8 893.8 675.3C982.8 675.9 1071.9 672.6 1160.7 665.5C1306.3 653.9 1453.8 632.1 1597.6 658C1613.5 660.9 1629.4 664.3 1645.5 665.9C1665.6 667.9 1685.9 667.1 1706.1 666.4C1793.4 663.4 1880.7 663.4 1968 666.6" stroke="#B7906C" stroke-width="2" stroke-miterlimit="10"/>
<path id="Vector_26" d="M4.80005 843.1C47.7001 874.1 108.2 849.9 159.9 861.3C186.5 867.2 210.2 882.5 236.7 888.9C297.1 903.5 357.7 869.7 409.4 835.2C422.9 826.2 436.7 816.9 452.4 813.3C464.3 810.6 476.6 811.3 488.8 811.6C582.5 813.8 675 790.2 768.7 785.8C866.2 781.3 963.3 797.6 1060.8 802.4C1241.2 811.1 1421.4 779.9 1601.9 785C1721.1 788.4 1841.3 807.5 1958.9 787.7C1951.5 788.9 1944.1 790.1 1936.6 791.2" stroke="#B7906C" stroke-width="2" stroke-miterlimit="10"/>
<path id="Vector_27" d="M452.9 835.3C731.2 816.2 1010.6 814.1 1289.1 829.1C1296.9 829.5 1305.1 830.1 1311.7 834.4C1315 836.5 1317.8 839.6 1321.6 840.4C1330.8 842.2 1336 830.5 1343.5 824.9C1350.2 819.8 1359.2 819.6 1367.6 819.6C1540.9 819.6 1714.2 819.7 1887.5 819.7C1898.7 840.6 1933.5 809.5 1953.7 822" stroke="#B7906C" stroke-width="2" stroke-miterlimit="10"/>
<path id="Vector_28" d="M473.9 856.1C502.8 853.9 545.4 844.6 569.9 863.3C574.7 867 580.3 871.9 586.1 870C591.9 868.1 593.6 860.9 596.9 855.9C604.1 845.1 619.2 844 632.1 844C809.2 843.9 986.2 843.9 1163.3 843.8C1198.7 843.8 1234.3 843.8 1269.2 849.8C1286.3 852.8 1303.4 857.2 1320.8 857.5C1335.7 857.8 1350.5 855 1365.3 853.2C1398.1 849.1 1431.3 849.5 1464.4 849.9C1626.9 851.7 1789.4 853.5 1951.9 855.4" stroke="#B7906C" stroke-width="2" stroke-miterlimit="10"/>
<path id="Vector_29" d="M-18.2999 879.4C73.0001 878.4 164.4 883.9 254.9 895.8C288.7 900.3 323.5 905.6 356.6 897.1C374.4 892.5 391.1 884.1 409 880C427.3 875.8 446.3 876.2 465.1 876.6C969 887.9 1473.1 887 1976.9 873.8" stroke="#B7906C" stroke-width="2" stroke-miterlimit="10"/>
<path id="Vector_30" d="M1694.3 433.5C1693 435.2 1691.9 437.2 1692.2 439.3C1692.5 441.8 1694.6 443.8 1697 444.6C1699.4 445.5 1702 445.4 1704.5 445.4C1709.1 445.3 1713.6 445.2 1718.2 445.1C1722.3 445 1726.7 445 1730.2 447.3C1733.5 449.4 1735.5 453.4 1739.2 454.7C1743.6 456.3 1748.8 452.8 1750 448.3C1751.2 443.8 1749.1 438.8 1745.6 435.7C1742.1 432.6 1737.5 430.9 1732.9 430C1721.9 427.7 1702.4 423.4 1694.3 433.5Z" stroke="#B7906C" stroke-width="2" stroke-miterlimit="10"/>
<path id="Vector_31" d="M1723 413.8C1713 412.4 1702.7 413.6 1693.4 417.4C1687.1 420 1681 423.9 1677.6 429.8C1674.2 435.7 1673.7 443.7 1678 449C1687.6 460.9 1708.7 450.4 1721.5 458.8C1726.8 462.2 1730.2 468.6 1736.3 470.1C1740.7 471.2 1745.4 469.3 1749.1 466.6C1760.6 458.3 1765.1 441.7 1759.5 428.6C1753.9 415.5 1738.6 407.5 1724.7 410.2C1698.9 408.7 1669.1 411.9 1652.1 431.3C1648.2 435.7 1644.6 441.2 1645.3 447.1C1646.2 454.3 1653.4 459.2 1660.4 461.1C1679.4 466.2 1701.3 457.3 1718.5 466.9C1724.8 470.4 1729.8 476.2 1736.6 478.9C1745.5 482.4 1755.5 479.8 1764.7 477.1C1769.9 475.6 1775.2 474 1779.4 470.6C1784.3 466.6 1787 460.5 1788.8 454.5C1793.9 437.9 1792.6 416.9 1778.4 406.8C1770.2 401 1759.5 400.1 1749.5 399.5C1742.4 399 1730.1 414.8 1723 413.8Z" stroke="#B7906C" stroke-width="2" stroke-miterlimit="10"/>
<path id="Vector_32" d="M1650.6 397.2C1634.4 405.1 1627.6 427.7 1636.5 443.3C1644.2 456.8 1660.2 463.1 1675.5 466C1690.8 468.9 1706.7 469.7 1720.8 476.3C1729.7 480.5 1737.4 486.8 1746.2 491.2C1761.2 498.6 1779.6 499.5 1794.6 492.3C1818.6 480.8 1829.5 449.1 1820.2 424.1C1807.6 390.5 1771.3 379.1 1738.7 384.4C1725.3 386.6 1712.6 392.6 1699.1 394.1C1682.7 395.9 1666.2 389.5 1650.6 397.2Z" stroke="#B7906C" stroke-width="2" stroke-miterlimit="10"/>
<path id="Vector_33" d="M1943.3 405.1C1888.2 412.6 1833.7 392.8 1779.7 379.9C1725.7 367 1663.9 362.3 1619.1 395.1C1605.6 405 1594.4 417.8 1579.9 426.2C1555.6 440.3 1525.9 440 1497.9 439.1C1385.4 435.9 1272.9 431.6 1160.3 429.7C984.6 426.8 808.8 429.8 633 432.8C583.5 433.6 534.1 434.5 484.6 435.3C304.2 438.4 123.8 441.5 -56.6 444.6" stroke="#B7906C" stroke-width="2" stroke-miterlimit="10"/>
<path id="Vector_34" d="M-12.7999 418.4C175.5 420.8 363.9 414.5 551.6 399.8C566.4 398.6 581.4 397.4 596 400.3C603.3 401.7 610.3 404.1 617.6 405.6C629.4 407.9 641.5 407.7 653.5 407.5C776.5 405 899.6 402.5 1022.6 400C1084.8 398.7 1147 397.5 1209.2 396.2C1239.6 395.6 1270 395 1300.4 394.3C1320.2 393.9 1339.3 389.4 1358.6 395.6C1376.1 401.2 1390.8 409.5 1409.3 411.5C1459.1 416.7 1514 412.3 1562.5 399.9C1588.6 393.2 1613.8 383.5 1639.8 376.6C1738.5 350.7 1842.7 367.9 1943.3 385.3" stroke="#B7906C" stroke-width="2" stroke-miterlimit="10"/>
<path id="Vector_35" d="M1933 365.8C1842.6 353.5 1751.4 341.9 1659.9 345.2C1615.3 346.8 1570.6 352 1527.3 363C1506.2 368.3 1486 375.5 1465.7 382.9C1449.9 388.7 1427.6 402.6 1410.6 398C1399.4 394.9 1391.9 384.8 1383.4 376.8C1367.3 361.5 1343.6 367.2 1323 366.7C1298.1 366.1 1273.3 365.6 1248.4 365.2C1197.3 364.3 1146.2 363.8 1095.1 363.6C992.9 363.1 890.7 364 788.5 366.1C512.3 371.8 236.4 386.7 -38.7999 411" stroke="#B7906C" stroke-width="4" stroke-miterlimit="10"/>
<path id="Vector_36" d="M-1.29993 478.2C20.3001 471.2 43.4001 470.9 66.1001 470.8C175.5 469.9 285 469 394.4 468.1C439.8 467.7 485.2 467.3 530.5 470.2C540.1 470.8 549.7 471.6 559.3 470.9C568.7 470.3 578 468.3 587.3 466.7C631.7 458.9 677.1 459.1 722.2 459.4C918.2 460.4 1114.2 461.4 1310.1 462.4C1317.7 462.4 1325.5 462.5 1332.3 465.8C1338.4 468.7 1343.3 474.1 1349.5 476.7C1359.1 480.7 1370 477.7 1380 475C1486.6 446.2 1602.2 451.9 1705.4 491C1728.5 499.8 1751.6 510.3 1776.3 511.5C1801 512.7 1828.3 501.7 1837.7 478.8C1843.6 464.5 1842.9 445.9 1855.7 437.3C1862.7 432.6 1871.8 432.5 1880.2 432.7C1903.2 433.1 1926.2 433.4 1949.1 433.8C1941.8 434.3 1934.5 434.8 1927.3 435.4" stroke="#B7906C" stroke-width="4" stroke-miterlimit="10"/>
<path id="Vector_37" d="M1927.6 462C1912 442.3 1879.5 450.1 1860.4 466.3C1841.3 482.6 1827.4 505.5 1804.8 516.5C1789.3 524.1 1771.5 525 1754.2 525C1684.2 525 1614.1 511 1549.4 484.1C1542.2 481.1 1534.7 477.9 1526.9 478.1C1519.5 478.4 1512.7 481.7 1505.7 484C1489.3 489.5 1471.6 489.7 1454.2 489.8C1059.4 492.2 664.7 494.6 269.9 497C250 497.1 229.7 496.3 209.8 497.4C195.7 498.2 183.3 503.5 171.1 494.3C165.1 489.8 159.1 484.3 151.6 484C144 483.7 137.4 488.8 130.6 492.2C106.2 504.4 73.4 497 47.1 498.1C17.2 499.3 -13 498.7 -42.9 498.9" stroke="#B7906C" stroke-width="2" stroke-miterlimit="10"/>
<path id="Vector_38" d="M-40.9 575.2C80.3 574.6 201.6 574.1 322.8 573.5C521 572.6 719.4 571.6 917.2 558.1C991.9 553 1066.5 546.1 1141.3 541.1C1181.1 538.5 1215.6 544.3 1254.1 548.8C1291.7 553.2 1328.3 530.5 1365.9 541.2C1378.1 544.7 1389.1 551.6 1401.5 554.4C1430.6 561.1 1468.2 557.2 1498.4 559C1537.6 561.4 1576.8 563.8 1616.1 566.1C1694.5 570.9 1773 575.6 1851.4 580.4C1860.4 580.9 1870.1 581.4 1877.9 576.8C1886.1 572 1890.5 562.7 1897 555.7C1909.3 542.6 1930.3 538.8 1946.4 546.6" stroke="#B7906C" stroke-width="5" stroke-miterlimit="10"/>
<path id="Vector_39" d="M1955.3 522.6C1944.1 531.9 1927.5 526.3 1912.9 525.4C1886 523.8 1861.6 540 1835.3 546C1819.4 549.6 1802.8 549.4 1786.5 549.1C1742.9 548.4 1699.2 547.7 1656 542C1625.5 537.9 1595.4 531.3 1564.8 527.7C1520.7 522.4 1476.1 523.3 1431.7 524.1C1377.7 525.1 1323.8 526.2 1269.8 527.2C1142.2 510.7 1013.3 498.7 884.7 501.1C787.7 502.9 691.2 515.5 594.3 519.6C477.1 524.6 359.3 517.2 242.5 528.5C169.8 535.5 96.7 549.8 24.2 540.9C10.8 539.2 -3.10003 535.1 -16.4 532.9C-19.3 532.4 -22.5 531.9 -25.2 533.1C-27.9 534.3 -29.8 537.9 -28.1 540.3" stroke="#B7906C" stroke-width="4" stroke-miterlimit="10"/>
<path id="Vector_40" d="M-24.9 631.6C57.9 609.8 143.2 597.3 228.8 594.3C245.7 593.7 263.5 593.7 278.2 601.9C291.1 609.1 305.4 622.5 317.9 614.6C325.2 610 327.5 599.5 335.3 595.7C346 590.4 357.2 601 368.4 605C385.7 611.2 406.2 601.3 422.9 609.1C427.9 611.5 432.2 615.3 437.4 617.3C443.5 619.6 450.2 619.1 456.7 618.6C544.7 611.6 632.6 604.5 720.6 597.5C902.8 582.9 1083.8 599.1 1266.5 598.4C1276.1 598.4 1286 598.3 1294.9 594.8C1301.6 592.2 1308 587.6 1315.2 587.8C1320.7 587.9 1325.6 590.8 1330.7 592.9C1344.1 598.4 1359 598.3 1373.4 598.2C1564.2 597 1754.9 601.9 1945.4 613.1C1949.9 613.4 1956.1 615.9 1954.7 620.2" stroke="#B7906C" stroke-width="3" stroke-miterlimit="10"/>
</g>
<g id="Group_2">
<path id="Vector_41" d="M1214.01 500.969H750.213C741.82 500.969 734.977 493.51 734.977 484.309L722 215.727C722 204.783 730.07 196 740.077 196H1224.92C1234.93 196 1243 204.853 1243 215.727L1230.02 483.472C1230.02 493.092 1222.86 500.969 1214.01 500.969Z" fill="white"/>
<path id="Vector_42" d="M1214.01 509.473H750.213C741.82 509.473 734.977 502.014 734.977 492.813L722 224.231C722 213.287 730.07 204.504 740.077 204.504H1224.92C1234.93 204.504 1243 213.357 1243 224.231L1230.02 491.976C1230.02 501.596 1222.86 509.473 1214.01 509.473Z" fill="#E6E6E6"/>
<path id="Vector_43" d="M1207.56 502.363H756.669C748.211 502.363 741.368 494.904 741.368 485.703L728.391 229.25C728.391 218.306 736.526 209.523 746.533 209.523H1218.53C1228.54 209.523 1236.67 218.376 1236.67 229.25L1223.7 484.866C1223.63 494.556 1216.47 502.363 1207.56 502.363Z" fill="#4D4D4D"/>
<path id="Vector_44" d="M1182.12 462.49H782.88L770.226 255.181H1194.77L1182.12 462.49Z" fill="#666666"/>
<path id="Vector_45" opacity="0.1" d="M1206.07 841H759.122C746.533 841 736.397 829.986 736.397 816.463V558.338C736.397 544.745 746.597 533.801 759.122 533.801H1206.07C1218.66 533.801 1228.8 544.814 1228.8 558.338V816.393C1228.8 829.986 1218.6 841 1206.07 841Z" fill="black"/>
<path id="Vector_46" d="M1206.07 828.313H759.122C746.533 828.313 736.397 817.3 736.397 803.776V545.651C736.397 532.058 746.597 521.114 759.122 521.114H1206.07C1218.66 521.114 1228.8 532.128 1228.8 545.651V803.707C1228.8 817.3 1218.6 828.313 1206.07 828.313Z" fill="#E6E6E6"/>
<path id="Vector_47" d="M1206.07 816.603H759.122C746.533 816.603 736.397 805.589 736.397 792.066V534.01C736.397 520.417 746.597 509.473 759.122 509.473H1206.07C1218.66 509.473 1228.8 520.487 1228.8 534.01V792.066C1228.8 805.658 1218.6 816.603 1206.07 816.603Z" fill="#F2F2F2"/>
<path id="Vector_48" d="M1125.63 502.363H839.564V520.905H1125.63V502.363Z" fill="#4D4D4D"/>
<path id="Vector_49" d="M1044.67 790.532H920.522C917.359 790.532 914.841 787.813 914.841 784.398V701.795C914.841 698.379 917.359 695.661 920.522 695.661H1044.61C1047.77 695.661 1050.29 698.379 1050.29 701.795V784.398C1050.29 787.744 1047.77 790.532 1044.67 790.532Z" fill="#E6E6E6"/>
<path id="Vector_50" d="M918.069 787.813V705.211C918.069 701.795 920.716 699.495 923.815 699.495H1047.9C1048.61 699.495 1049.26 699.634 1049.84 699.843C1049 697.612 1046.93 696.009 1044.61 696.009H920.522C917.359 696.009 914.841 698.379 914.841 701.795V784.398C914.841 787.047 916.326 789.277 918.521 790.114C918.263 789.417 918.069 788.65 918.069 787.813Z" fill="#CCCCCC"/>
<g id="Group_3">
<path id="Vector_51" d="M813.805 558.338H775.779C774.294 558.338 773.067 557.013 773.067 555.41V544.536C773.067 542.932 774.294 541.608 775.779 541.608H813.805C815.29 541.608 816.516 542.932 816.516 544.536V555.41C816.516 557.013 815.29 558.338 813.805 558.338Z" fill="#4D4D4D"/>
<path id="Vector_52" d="M867.841 558.338H829.815C828.33 558.338 827.104 557.013 827.104 555.41V544.536C827.104 542.932 828.33 541.608 829.815 541.608H867.841C869.326 541.608 870.553 542.932 870.553 544.536V555.41C870.553 557.013 869.326 558.338 867.841 558.338Z" fill="#4D4D4D"/>
<path id="Vector_53" d="M921.878 558.338H883.852C882.367 558.338 881.141 557.013 881.141 555.41V544.536C881.141 542.932 882.367 541.608 883.852 541.608H921.878C923.363 541.608 924.59 542.932 924.59 544.536V555.41C924.59 557.013 923.363 558.338 921.878 558.338Z" fill="#4D4D4D"/>
<path id="Vector_54" d="M975.915 558.338H937.889C936.404 558.338 935.177 557.013 935.177 555.41V544.536C935.177 542.932 936.404 541.608 937.889 541.608H975.915C977.4 541.608 978.626 542.932 978.626 544.536V555.41C978.626 557.013 977.4 558.338 975.915 558.338Z" fill="#4D4D4D"/>
<path id="Vector_55" d="M1029.95 558.338H991.926C990.441 558.338 989.214 557.013 989.214 555.41V544.536C989.214 542.932 990.441 541.608 991.926 541.608H1029.95C1031.44 541.608 1032.66 542.932 1032.66 544.536V555.41C1032.66 557.013 1031.44 558.338 1029.95 558.338Z" fill="#4D4D4D"/>
<path id="Vector_56" d="M1083.99 558.338H1045.96C1044.48 558.338 1043.25 557.013 1043.25 555.41V544.536C1043.25 542.932 1044.48 541.608 1045.96 541.608H1083.99C1085.47 541.608 1086.7 542.932 1086.7 544.536V555.41C1086.7 557.013 1085.47 558.338 1083.99 558.338Z" fill="#4D4D4D"/>
<path id="Vector_57" d="M1138.03 558.338H1100C1098.51 558.338 1097.29 557.013 1097.29 555.41V544.536C1097.29 542.932 1098.51 541.608 1100 541.608H1138.03C1139.51 541.608 1140.74 542.932 1140.74 544.536V555.41C1140.74 557.013 1139.51 558.338 1138.03 558.338Z" fill="#4D4D4D"/>
<path id="Vector_58" d="M1192.06 558.338H1154.04C1152.55 558.338 1151.32 557.013 1151.32 555.41V544.536C1151.32 542.932 1152.55 541.608 1154.04 541.608H1192.06C1193.55 541.608 1194.77 542.932 1194.77 544.536V555.41C1194.77 557.013 1193.55 558.338 1192.06 558.338Z" fill="#4D4D4D"/>
<path id="Vector_59" d="M831.752 597.931H777.005C774.81 597.931 773.067 596.049 773.067 593.679V573.394C773.067 571.024 774.81 569.142 777.005 569.142H831.752C833.947 569.142 835.69 571.024 835.69 573.394V593.679C835.755 595.979 833.947 597.931 831.752 597.931Z" fill="#4D4D4D"/>
<path id="Vector_60" d="M878.3 597.931H852.541C850.991 597.931 849.764 596.607 849.764 594.934V572.14C849.764 570.467 850.991 569.142 852.541 569.142H878.3C879.849 569.142 881.076 570.467 881.076 572.14V594.934C881.141 596.537 879.849 597.931 878.3 597.931Z" fill="#4D4D4D"/>
<path id="Vector_61" d="M919.296 597.931H893.536C891.987 597.931 890.76 596.607 890.76 594.934V572.14C890.76 570.467 891.987 569.142 893.536 569.142H919.296C920.845 569.142 922.072 570.467 922.072 572.14V594.934C922.072 596.537 920.845 597.931 919.296 597.931Z" fill="#4D4D4D"/>
<path id="Vector_62" d="M960.227 597.931H934.467C932.918 597.931 931.691 596.607 931.691 594.934V572.14C931.691 570.467 932.918 569.142 934.467 569.142H960.227C961.776 569.142 963.003 570.467 963.003 572.14V594.934C963.003 596.537 961.776 597.931 960.227 597.931Z" fill="#4D4D4D"/>
<path id="Vector_63" d="M1001.16 597.931H975.398C973.849 597.931 972.622 596.607 972.622 594.934V572.14C972.622 570.467 973.849 569.142 975.398 569.142H1001.16C1002.71 569.142 1003.93 570.467 1003.93 572.14V594.934C1004 596.537 1002.71 597.931 1001.16 597.931Z" fill="#4D4D4D"/>
<path id="Vector_64" d="M1042.15 597.931H1016.39C1014.84 597.931 1013.62 596.607 1013.62 594.934V572.14C1013.62 570.467 1014.84 569.142 1016.39 569.142H1042.15C1043.7 569.142 1044.93 570.467 1044.93 572.14V594.934C1044.93 596.537 1043.7 597.931 1042.15 597.931Z" fill="#4D4D4D"/>
<path id="Vector_65" d="M1083.08 597.931H1057.33C1055.78 597.931 1054.55 596.607 1054.55 594.934V572.14C1054.55 570.467 1055.78 569.142 1057.33 569.142H1083.08C1084.63 569.142 1085.86 570.467 1085.86 572.14V594.934C1085.93 596.537 1084.63 597.931 1083.08 597.931Z" fill="#4D4D4D"/>
<path id="Vector_66" d="M1124.08 597.931H1098.32C1096.77 597.931 1095.54 596.607 1095.54 594.934V572.14C1095.54 570.467 1096.77 569.142 1098.32 569.142H1124.08C1125.63 569.142 1126.86 570.467 1126.86 572.14V594.934C1126.86 596.537 1125.63 597.931 1124.08 597.931Z" fill="#4D4D4D"/>
<path id="Vector_67" d="M1190.96 597.931H1140.28C1138.15 597.931 1136.48 596.049 1136.48 593.819V573.255C1136.48 570.955 1138.22 569.142 1140.28 569.142H1190.96C1193.09 569.142 1194.77 571.024 1194.77 573.255V593.819C1194.77 596.049 1193.03 597.931 1190.96 597.931Z" fill="#4D4D4D"/>
<path id="Vector_68" d="M844.793 637.246H777.393C775.004 637.246 773.002 635.155 773.002 632.506V613.127C773.002 610.548 774.939 608.387 777.393 608.387H844.793C847.182 608.387 849.183 610.479 849.183 613.127V632.506C849.183 635.155 847.182 637.246 844.793 637.246Z" fill="#4D4D4D"/>
<path id="Vector_69" d="M892.051 637.246H866.292C864.742 637.246 863.516 635.922 863.516 634.249V611.454C863.516 609.781 864.742 608.457 866.292 608.457H892.051C893.601 608.457 894.827 609.781 894.827 611.454V634.249C894.827 635.852 893.601 637.246 892.051 637.246Z" fill="#4D4D4D"/>
<path id="Vector_70" d="M801.603 677.397H775.843C774.294 677.397 773.067 676.073 773.067 674.4V651.606C773.067 649.933 774.294 648.608 775.843 648.608H801.603C803.152 648.608 804.379 649.933 804.379 651.606V674.4C804.379 676.003 803.152 677.397 801.603 677.397Z" fill="#4D4D4D"/>
<path id="Vector_71" d="M845.052 677.397H819.292C817.743 677.397 816.516 676.073 816.516 674.4V651.606C816.516 649.933 817.743 648.608 819.292 648.608H845.052C846.601 648.608 847.828 649.933 847.828 651.606V674.4C847.828 676.003 846.601 677.397 845.052 677.397Z" fill="#4D4D4D"/>
<path id="Vector_72" d="M886.047 677.397H860.288C858.738 677.397 857.512 676.073 857.512 674.4V651.606C857.512 649.933 858.738 648.608 860.288 648.608H886.047C887.597 648.608 888.823 649.933 888.823 651.606V674.4C888.823 676.003 887.597 677.397 886.047 677.397Z" fill="#4D4D4D"/>
<path id="Vector_73" d="M1077.86 677.397H1052.1C1050.55 677.397 1049.32 676.073 1049.32 674.4V651.606C1049.32 649.933 1050.55 648.608 1052.1 648.608H1077.86C1079.4 648.608 1080.63 649.933 1080.63 651.606V674.4C1080.63 676.003 1079.4 677.397 1077.86 677.397Z" fill="#4D4D4D"/>
<path id="Vector_74" d="M1120.4 677.397H1094.64C1093.09 677.397 1091.86 676.073 1091.86 674.4V651.606C1091.86 649.933 1093.09 648.608 1094.64 648.608H1120.4C1121.95 648.608 1123.18 649.933 1123.18 651.606V674.4C1123.24 676.003 1121.95 677.397 1120.4 677.397Z" fill="#4D4D4D"/>
<path id="Vector_75" d="M1190.9 677.397H1138.35C1136.22 677.397 1134.47 675.515 1134.47 673.215V652.791C1134.47 650.49 1136.22 648.608 1138.35 648.608H1190.9C1193.03 648.608 1194.77 650.49 1194.77 652.791V673.215C1194.77 675.515 1193.03 677.397 1190.9 677.397Z" fill="#4D4D4D"/>
<path id="Vector_76" d="M1031.31 677.397H904.382C901.154 677.397 898.507 674.539 898.507 671.054V654.952C898.507 651.466 901.154 648.608 904.382 648.608H1031.31C1034.54 648.608 1037.18 651.466 1037.18 654.952V671.054C1037.25 674.539 1034.6 677.397 1031.31 677.397Z" fill="#4D4D4D"/>
<path id="Vector_77" d="M932.337 637.246H906.577C905.028 637.246 903.801 635.922 903.801 634.249V611.454C903.801 609.781 905.028 608.457 906.577 608.457H932.337C933.886 608.457 935.113 609.781 935.113 611.454V634.249C935.177 635.852 933.886 637.246 932.337 637.246Z" fill="#4D4D4D"/>
<path id="Vector_78" d="M972.622 637.246H946.863C945.313 637.246 944.087 635.922 944.087 634.249V611.454C944.087 609.781 945.313 608.457 946.863 608.457H972.622C974.172 608.457 975.398 609.781 975.398 611.454V634.249C975.463 635.852 974.172 637.246 972.622 637.246Z" fill="#4D4D4D"/>
<path id="Vector_79" d="M1012.91 637.246H987.148C985.599 637.246 984.372 635.922 984.372 634.249V611.454C984.372 609.781 985.599 608.457 987.148 608.457H1012.91C1014.46 608.457 1015.68 609.781 1015.68 611.454V634.249C1015.75 635.852 1014.46 637.246 1012.91 637.246Z" fill="#4D4D4D"/>
<path id="Vector_80" d="M1053.19 637.246H1027.43C1025.88 637.246 1024.66 635.922 1024.66 634.249V611.454C1024.66 609.781 1025.88 608.457 1027.43 608.457H1053.19C1054.74 608.457 1055.97 609.781 1055.97 611.454V634.249C1056.03 635.852 1054.74 637.246 1053.19 637.246Z" fill="#4D4D4D"/>
<path id="Vector_81" d="M1093.48 637.246H1067.72C1066.17 637.246 1064.94 635.922 1064.94 634.249V611.454C1064.94 609.781 1066.17 608.457 1067.72 608.457H1093.48C1095.03 608.457 1096.25 609.781 1096.25 611.454V634.249C1096.32 635.852 1095.03 637.246 1093.48 637.246Z" fill="#4D4D4D"/>
<path id="Vector_82" d="M1133.83 637.246H1108.07C1106.52 637.246 1105.29 635.922 1105.29 634.249V611.454C1105.29 609.781 1106.52 608.457 1108.07 608.457H1133.83C1135.38 608.457 1136.6 609.781 1136.6 611.454V634.249C1136.6 635.852 1135.38 637.246 1133.83 637.246Z" fill="#4D4D4D"/>
<path id="Vector_83" d="M1191.29 637.246H1149.07C1147.13 637.246 1145.58 635.573 1145.58 633.482V612.221C1145.58 610.13 1147.13 608.457 1149.07 608.457H1191.29C1193.22 608.457 1194.77 610.13 1194.77 612.221V633.482C1194.77 635.573 1193.22 637.246 1191.29 637.246Z" fill="#4D4D4D"/>
</g>
<path id="Vector_84" d="M1024.14 816.602H942.215C942.215 812.838 945.055 809.771 948.541 809.771H1017.75C1021.3 809.771 1024.14 812.838 1024.14 816.602Z" fill="#CCCCCC"/>
<path id="Vector_85" d="M978.626 239.706C981.942 239.706 984.63 236.804 984.63 233.224C984.63 229.643 981.942 226.741 978.626 226.741C975.31 226.741 972.622 229.643 972.622 233.224C972.622 236.804 975.31 239.706 978.626 239.706Z" fill="#666666"/>
</g>
<g id="WT">
<path id="WT_2" d="M861.406 369.656L862.281 375.656L863.562 370.25L872.562 338.5H877.625L886.406 370.25L887.656 375.75L888.625 369.625L895.688 338.5H901.719L890.688 384H885.219L875.844 350.844L875.125 347.375L874.406 350.844L864.688 384H859.219L848.219 338.5H854.219L861.406 369.656ZM920.531 384.625C915.948 384.625 912.219 383.125 909.344 380.125C906.469 377.104 905.031 373.073 905.031 368.031V366.969C905.031 363.615 905.667 360.625 906.938 358C908.229 355.354 910.021 353.292 912.312 351.812C914.625 350.312 917.125 349.562 919.812 349.562C924.208 349.562 927.625 351.01 930.062 353.906C932.5 356.802 933.719 360.948 933.719 366.344V368.75H910.812C910.896 372.083 911.865 374.781 913.719 376.844C915.594 378.885 917.969 379.906 920.844 379.906C922.885 379.906 924.615 379.49 926.031 378.656C927.448 377.823 928.688 376.719 929.75 375.344L933.281 378.094C930.448 382.448 926.198 384.625 920.531 384.625ZM919.812 354.312C917.479 354.312 915.521 355.167 913.938 356.875C912.354 358.562 911.375 360.938 911 364H927.938V363.562C927.771 360.625 926.979 358.354 925.562 356.75C924.146 355.125 922.229 354.312 919.812 354.312ZM946.719 384H940.938V336H946.719V384ZM969.562 379.906C971.625 379.906 973.427 379.281 974.969 378.031C976.51 376.781 977.365 375.219 977.531 373.344H983C982.896 375.281 982.229 377.125 981 378.875C979.771 380.625 978.125 382.021 976.062 383.062C974.021 384.104 971.854 384.625 969.562 384.625C964.958 384.625 961.292 383.094 958.562 380.031C955.854 376.948 954.5 372.74 954.5 367.406V366.438C954.5 363.146 955.104 360.219 956.312 357.656C957.521 355.094 959.25 353.104 961.5 351.688C963.771 350.271 966.448 349.562 969.531 349.562C973.323 349.562 976.469 350.698 978.969 352.969C981.49 355.24 982.833 358.188 983 361.812H977.531C977.365 359.625 976.531 357.833 975.031 356.438C973.552 355.021 971.719 354.312 969.531 354.312C966.594 354.312 964.312 355.375 962.688 357.5C961.083 359.604 960.281 362.656 960.281 366.656V367.75C960.281 371.646 961.083 374.646 962.688 376.75C964.292 378.854 966.583 379.906 969.562 379.906ZM987.969 366.781C987.969 363.469 988.615 360.49 989.906 357.844C991.219 355.198 993.031 353.156 995.344 351.719C997.677 350.281 1000.33 349.562 1003.31 349.562C1007.92 349.562 1011.64 351.156 1014.47 354.344C1017.32 357.531 1018.75 361.771 1018.75 367.062V367.469C1018.75 370.76 1018.11 373.719 1016.84 376.344C1015.59 378.948 1013.79 380.979 1011.44 382.438C1009.1 383.896 1006.42 384.625 1003.38 384.625C998.792 384.625 995.073 383.031 992.219 379.844C989.385 376.656 987.969 372.438 987.969 367.188V366.781ZM993.781 367.469C993.781 371.219 994.646 374.229 996.375 376.5C998.125 378.771 1000.46 379.906 1003.38 379.906C1006.31 379.906 1008.65 378.76 1010.38 376.469C1012.1 374.156 1012.97 370.927 1012.97 366.781C1012.97 363.073 1012.08 360.073 1010.31 357.781C1008.56 355.469 1006.23 354.312 1003.31 354.312C1000.46 354.312 998.156 355.448 996.406 357.719C994.656 359.99 993.781 363.24 993.781 367.469ZM1031.44 350.188L1031.59 353.938C1034.07 351.021 1037.42 349.562 1041.62 349.562C1046.35 349.562 1049.57 351.375 1051.28 355C1052.41 353.375 1053.86 352.062 1055.66 351.062C1057.47 350.062 1059.6 349.562 1062.06 349.562C1069.48 349.562 1073.25 353.49 1073.38 361.344V384H1067.59V361.688C1067.59 359.271 1067.04 357.469 1065.94 356.281C1064.83 355.073 1062.98 354.469 1060.38 354.469C1058.23 354.469 1056.45 355.115 1055.03 356.406C1053.61 357.677 1052.79 359.396 1052.56 361.562V384H1046.75V361.844C1046.75 356.927 1044.34 354.469 1039.53 354.469C1035.74 354.469 1033.15 356.083 1031.75 359.312V384H1025.97V350.188H1031.44ZM1096.16 384.625C1091.57 384.625 1087.84 383.125 1084.97 380.125C1082.09 377.104 1080.66 373.073 1080.66 368.031V366.969C1080.66 363.615 1081.29 360.625 1082.56 358C1083.85 355.354 1085.65 353.292 1087.94 351.812C1090.25 350.312 1092.75 349.562 1095.44 349.562C1099.83 349.562 1103.25 351.01 1105.69 353.906C1108.12 356.802 1109.34 360.948 1109.34 366.344V368.75H1086.44C1086.52 372.083 1087.49 374.781 1089.34 376.844C1091.22 378.885 1093.59 379.906 1096.47 379.906C1098.51 379.906 1100.24 379.49 1101.66 378.656C1103.07 377.823 1104.31 376.719 1105.38 375.344L1108.91 378.094C1106.07 382.448 1101.82 384.625 1096.16 384.625ZM1095.44 354.312C1093.1 354.312 1091.15 355.167 1089.56 356.875C1087.98 358.562 1087 360.938 1086.62 364H1103.56V363.562C1103.4 360.625 1102.6 358.354 1101.19 356.75C1099.77 355.125 1097.85 354.312 1095.44 354.312Z" fill="white"/>
</g>
</g>
<defs>
<clipPath id="clip0_2_2">
<rect width="1920" height="1080" fill="white"/>
</clipPath>
</defs>
</svg>
