<svg width="521" height="645" viewBox="0 0 521 645" fill="none" xmlns="http://www.w3.org/2000/svg">
<g id="Laptop">
<g id="Group">
<path id="Vector" d="M492.012 304.969H28.2128C19.82 304.969 12.9766 297.51 12.9766 288.309L0 19.7271C0 8.7831 8.07001 0 18.0768 0H502.923C512.93 0 521 8.85281 521 19.7271L508.023 287.472C508.023 297.092 500.857 304.969 492.012 304.969Z" fill="white"/>
<path id="Vector_2" d="M492.012 313.473H28.2128C19.82 313.473 12.9766 306.014 12.9766 296.813L0 28.2314C0 17.2874 8.07001 8.5043 18.0768 8.5043H502.923C512.93 8.5043 521 17.3571 521 28.2314L508.023 295.976C508.023 305.596 500.857 313.473 492.012 313.473Z" fill="#E6E6E6"/>
<path id="Vector_3" d="M485.556 306.363H34.6688C26.2114 306.363 19.368 298.904 19.368 289.703L6.39148 33.2503C6.39148 22.3063 14.526 13.5232 24.5328 13.5232H496.532C506.539 13.5232 514.673 22.376 514.673 33.2503L501.697 288.866C501.632 298.556 494.466 306.363 485.556 306.363Z" fill="#4D4D4D"/>
<path id="Vector_4" d="M460.12 266.49H60.8802L48.2264 59.1814H472.774L460.12 266.49Z" fill="#666666"/>
<path id="Vector_5" opacity="0.1" d="M484.072 645H37.122C24.5328 645 14.3969 633.986 14.3969 620.463V362.338C14.3969 348.745 24.5974 337.801 37.122 337.801H484.072C496.661 337.801 506.797 348.814 506.797 362.338V620.393C506.797 633.986 496.596 645 484.072 645Z" fill="black"/>
<path id="Vector_6" d="M484.072 632.313H37.122C24.5328 632.313 14.3969 621.3 14.3969 607.776V349.651C14.3969 336.058 24.5974 325.114 37.122 325.114H484.072C496.661 325.114 506.797 336.128 506.797 349.651V607.707C506.797 621.3 496.596 632.313 484.072 632.313Z" fill="#E6E6E6"/>
<path id="Vector_7" d="M484.072 620.603H37.122C24.5328 620.603 14.3969 609.589 14.3969 596.066V338.01C14.3969 324.417 24.5974 313.473 37.122 313.473H484.072C496.661 313.473 506.797 324.487 506.797 338.01V596.066C506.797 609.658 496.596 620.603 484.072 620.603Z" fill="#F2F2F2"/>
<path id="Vector_8" d="M403.63 306.363H117.564V324.905H403.63V306.363Z" fill="#4D4D4D"/>
<path id="Vector_9" d="M322.671 594.532H198.522C195.359 594.532 192.841 591.813 192.841 588.398V505.795C192.841 502.379 195.359 499.661 198.522 499.661H322.607C325.77 499.661 328.288 502.379 328.288 505.795V588.398C328.288 591.744 325.77 594.532 322.671 594.532Z" fill="#E6E6E6"/>
<path id="Vector_10" d="M196.069 591.814V509.211C196.069 505.795 198.716 503.495 201.815 503.495H325.899C326.61 503.495 327.255 503.634 327.836 503.843C326.997 501.612 324.931 500.009 322.607 500.009H198.522C195.359 500.009 192.841 502.379 192.841 505.795V588.398C192.841 591.047 194.326 593.277 196.521 594.114C196.263 593.417 196.069 592.65 196.069 591.814Z" fill="#CCCCCC"/>
<g id="Group_2">
<path id="Vector_11" d="M91.8048 362.338H53.7789C52.2941 362.338 51.0674 361.013 51.0674 359.41V348.536C51.0674 346.932 52.2941 345.608 53.7789 345.608H91.8048C93.2897 345.608 94.5164 346.932 94.5164 348.536V359.41C94.5164 361.013 93.2897 362.338 91.8048 362.338Z" fill="#4D4D4D"/>
<path id="Vector_12" d="M145.841 362.338H107.815C106.33 362.338 105.104 361.013 105.104 359.41V348.536C105.104 346.932 106.33 345.608 107.815 345.608H145.841C147.326 345.608 148.553 346.932 148.553 348.536V359.41C148.553 361.013 147.326 362.338 145.841 362.338Z" fill="#4D4D4D"/>
<path id="Vector_13" d="M199.878 362.338H161.852C160.367 362.338 159.141 361.013 159.141 359.41V348.536C159.141 346.932 160.367 345.608 161.852 345.608H199.878C201.363 345.608 202.59 346.932 202.59 348.536V359.41C202.59 361.013 201.363 362.338 199.878 362.338Z" fill="#4D4D4D"/>
<path id="Vector_14" d="M253.915 362.338H215.889C214.404 362.338 213.177 361.013 213.177 359.41V348.536C213.177 346.932 214.404 345.608 215.889 345.608H253.915C255.4 345.608 256.626 346.932 256.626 348.536V359.41C256.626 361.013 255.4 362.338 253.915 362.338Z" fill="#4D4D4D"/>
<path id="Vector_15" d="M307.952 362.338H269.926C268.441 362.338 267.214 361.013 267.214 359.41V348.536C267.214 346.932 268.441 345.608 269.926 345.608H307.952C309.437 345.608 310.663 346.932 310.663 348.536V359.41C310.663 361.013 309.437 362.338 307.952 362.338Z" fill="#4D4D4D"/>
<path id="Vector_16" d="M361.988 362.338H323.963C322.478 362.338 321.251 361.013 321.251 359.41V348.536C321.251 346.932 322.478 345.608 323.963 345.608H361.988C363.473 345.608 364.7 346.932 364.7 348.536V359.41C364.7 361.013 363.473 362.338 361.988 362.338Z" fill="#4D4D4D"/>
<path id="Vector_17" d="M416.025 362.338H377.999C376.515 362.338 375.288 361.013 375.288 359.41V348.536C375.288 346.932 376.515 345.608 377.999 345.608H416.025C417.51 345.608 418.737 346.932 418.737 348.536V359.41C418.737 361.013 417.51 362.338 416.025 362.338Z" fill="#4D4D4D"/>
<path id="Vector_18" d="M470.062 362.338H432.036C430.551 362.338 429.325 361.013 429.325 359.41V348.536C429.325 346.932 430.551 345.608 432.036 345.608H470.062C471.547 345.608 472.774 346.932 472.774 348.536V359.41C472.774 361.013 471.547 362.338 470.062 362.338Z" fill="#4D4D4D"/>
<path id="Vector_19" d="M109.752 401.931H55.0052C52.8101 401.931 51.067 400.049 51.067 397.679V377.394C51.067 375.024 52.8101 373.142 55.0052 373.142H109.752C111.947 373.142 113.69 375.024 113.69 377.394V397.679C113.755 399.979 111.947 401.931 109.752 401.931Z" fill="#4D4D4D"/>
<path id="Vector_20" d="M156.3 401.931H130.541C128.991 401.931 127.764 400.607 127.764 398.934V376.14C127.764 374.467 128.991 373.142 130.541 373.142H156.3C157.849 373.142 159.076 374.467 159.076 376.14V398.934C159.141 400.537 157.849 401.931 156.3 401.931Z" fill="#4D4D4D"/>
<path id="Vector_21" d="M197.296 401.931H171.536C169.987 401.931 168.76 400.607 168.76 398.934V376.14C168.76 374.467 169.987 373.142 171.536 373.142H197.296C198.845 373.142 200.072 374.467 200.072 376.14V398.934C200.072 400.537 198.845 401.931 197.296 401.931Z" fill="#4D4D4D"/>
<path id="Vector_22" d="M238.227 401.931H212.467C210.918 401.931 209.691 400.607 209.691 398.934V376.14C209.691 374.467 210.918 373.142 212.467 373.142H238.227C239.776 373.142 241.003 374.467 241.003 376.14V398.934C241.003 400.537 239.776 401.931 238.227 401.931Z" fill="#4D4D4D"/>
<path id="Vector_23" d="M279.158 401.931H253.398C251.849 401.931 250.622 400.607 250.622 398.934V376.14C250.622 374.467 251.849 373.142 253.398 373.142H279.158C280.707 373.142 281.934 374.467 281.934 376.14V398.934C281.998 400.537 280.707 401.931 279.158 401.931Z" fill="#4D4D4D"/>
<path id="Vector_24" d="M320.153 401.931H294.394C292.845 401.931 291.618 400.607 291.618 398.934V376.14C291.618 374.467 292.845 373.142 294.394 373.142H320.153C321.703 373.142 322.93 374.467 322.93 376.14V398.934C322.93 400.537 321.703 401.931 320.153 401.931Z" fill="#4D4D4D"/>
<path id="Vector_25" d="M361.085 401.931H335.325C333.776 401.931 332.549 400.607 332.549 398.934V376.14C332.549 374.467 333.776 373.142 335.325 373.142H361.085C362.634 373.142 363.861 374.467 363.861 376.14V398.934C363.925 400.537 362.634 401.931 361.085 401.931Z" fill="#4D4D4D"/>
<path id="Vector_26" d="M402.08 401.931H376.321C374.771 401.931 373.545 400.607 373.545 398.934V376.14C373.545 374.467 374.771 373.142 376.321 373.142H402.08C403.63 373.142 404.856 374.467 404.856 376.14V398.934C404.856 400.537 403.63 401.931 402.08 401.931Z" fill="#4D4D4D"/>
<path id="Vector_27" d="M468.964 401.931H418.285C416.154 401.931 414.476 400.049 414.476 397.819V377.255C414.476 374.955 416.219 373.142 418.285 373.142H468.964C471.095 373.142 472.774 375.024 472.774 377.255V397.819C472.774 400.049 471.03 401.931 468.964 401.931Z" fill="#4D4D4D"/>
<path id="Vector_28" d="M122.793 441.246H55.3925C53.0038 441.246 51.0025 439.155 51.0025 436.506V417.127C51.0025 414.548 52.9393 412.387 55.3925 412.387H122.793C125.182 412.387 127.183 414.479 127.183 417.127V436.506C127.183 439.155 125.182 441.246 122.793 441.246Z" fill="#4D4D4D"/>
<path id="Vector_29" d="M170.051 441.246H144.292C142.742 441.246 141.516 439.922 141.516 438.249V415.454C141.516 413.781 142.742 412.457 144.292 412.457H170.051C171.601 412.457 172.827 413.781 172.827 415.454V438.249C172.827 439.852 171.601 441.246 170.051 441.246Z" fill="#4D4D4D"/>
<path id="Vector_30" d="M79.6026 481.397H53.8431C52.2937 481.397 51.067 480.073 51.067 478.4V455.606C51.067 453.933 52.2937 452.608 53.8431 452.608H79.6026C81.152 452.608 82.3787 453.933 82.3787 455.606V478.4C82.3787 480.003 81.152 481.397 79.6026 481.397Z" fill="#4D4D4D"/>
<path id="Vector_31" d="M123.052 481.397H97.292C95.7426 481.397 94.516 480.073 94.516 478.4V455.606C94.516 453.933 95.7426 452.608 97.292 452.608H123.052C124.601 452.608 125.828 453.933 125.828 455.606V478.4C125.828 480.003 124.601 481.397 123.052 481.397Z" fill="#4D4D4D"/>
<path id="Vector_32" d="M164.047 481.397H138.288C136.738 481.397 135.512 480.073 135.512 478.4V455.606C135.512 453.933 136.738 452.608 138.288 452.608H164.047C165.597 452.608 166.823 453.933 166.823 455.606V478.4C166.823 480.003 165.597 481.397 164.047 481.397Z" fill="#4D4D4D"/>
<path id="Vector_33" d="M355.855 481.397H330.096C328.546 481.397 327.32 480.073 327.32 478.4V455.606C327.32 453.933 328.546 452.608 330.096 452.608H355.855C357.405 452.608 358.631 453.933 358.631 455.606V478.4C358.631 480.003 357.405 481.397 355.855 481.397Z" fill="#4D4D4D"/>
<path id="Vector_34" d="M398.4 481.397H372.641C371.091 481.397 369.865 480.073 369.865 478.4V455.606C369.865 453.933 371.091 452.608 372.641 452.608H398.4C399.95 452.608 401.176 453.933 401.176 455.606V478.4C401.241 480.003 399.95 481.397 398.4 481.397Z" fill="#4D4D4D"/>
<path id="Vector_35" d="M468.9 481.397H416.348C414.218 481.397 412.474 479.515 412.474 477.215V456.791C412.474 454.49 414.218 452.608 416.348 452.608H468.9C471.03 452.608 472.774 454.49 472.774 456.791V477.215C472.774 479.515 471.03 481.397 468.9 481.397Z" fill="#4D4D4D"/>
<path id="Vector_36" d="M309.307 481.397H182.382C179.154 481.397 176.507 478.539 176.507 475.054V458.952C176.507 455.466 179.154 452.608 182.382 452.608H309.307C312.535 452.608 315.182 455.466 315.182 458.952V475.054C315.247 478.539 312.6 481.397 309.307 481.397Z" fill="#4D4D4D"/>
<path id="Vector_37" d="M210.337 441.246H184.577C183.028 441.246 181.801 439.922 181.801 438.249V415.454C181.801 413.781 183.028 412.457 184.577 412.457H210.337C211.886 412.457 213.113 413.781 213.113 415.454V438.249C213.177 439.852 211.886 441.246 210.337 441.246Z" fill="#4D4D4D"/>
<path id="Vector_38" d="M250.622 441.246H224.863C223.313 441.246 222.087 439.922 222.087 438.249V415.454C222.087 413.781 223.313 412.457 224.863 412.457H250.622C252.172 412.457 253.398 413.781 253.398 415.454V438.249C253.463 439.852 252.172 441.246 250.622 441.246Z" fill="#4D4D4D"/>
<path id="Vector_39" d="M290.908 441.246H265.148C263.599 441.246 262.372 439.922 262.372 438.249V415.454C262.372 413.781 263.599 412.457 265.148 412.457H290.908C292.457 412.457 293.684 413.781 293.684 415.454V438.249C293.748 439.852 292.457 441.246 290.908 441.246Z" fill="#4D4D4D"/>
<path id="Vector_40" d="M331.193 441.246H305.434C303.884 441.246 302.658 439.922 302.658 438.249V415.454C302.658 413.781 303.884 412.457 305.434 412.457H331.193C332.743 412.457 333.969 413.781 333.969 415.454V438.249C334.034 439.852 332.743 441.246 331.193 441.246Z" fill="#4D4D4D"/>
<path id="Vector_41" d="M371.479 441.246H345.719C344.17 441.246 342.943 439.922 342.943 438.249V415.454C342.943 413.781 344.17 412.457 345.719 412.457H371.479C373.028 412.457 374.255 413.781 374.255 415.454V438.249C374.319 439.852 373.028 441.246 371.479 441.246Z" fill="#4D4D4D"/>
<path id="Vector_42" d="M411.829 441.246H386.069C384.52 441.246 383.293 439.922 383.293 438.249V415.454C383.293 413.781 384.52 412.457 386.069 412.457H411.829C413.378 412.457 414.605 413.781 414.605 415.454V438.249C414.605 439.852 413.378 441.246 411.829 441.246Z" fill="#4D4D4D"/>
<path id="Vector_43" d="M469.287 441.246H427.065C425.128 441.246 423.579 439.573 423.579 437.482V416.221C423.579 414.13 425.128 412.457 427.065 412.457H469.287C471.224 412.457 472.774 414.13 472.774 416.221V437.482C472.774 439.573 471.224 441.246 469.287 441.246Z" fill="#4D4D4D"/>
</g>
<path id="Vector_44" d="M302.141 620.602H220.215C220.215 616.838 223.055 613.771 226.541 613.771H295.75C299.301 613.771 302.141 616.838 302.141 620.602Z" fill="#CCCCCC"/>
<path id="Vector_45" d="M256.626 43.7064C259.942 43.7064 262.63 40.8039 262.63 37.2236C262.63 33.6433 259.942 30.7408 256.626 30.7408C253.31 30.7408 250.622 33.6433 250.622 37.2236C250.622 40.8039 253.31 43.7064 256.626 43.7064Z" fill="#666666"/>
</g>
<g id="WT">
<path id="WT_2" d="M139.406 173.656L140.281 179.656L141.562 174.25L150.562 142.5H155.625L164.406 174.25L165.656 179.75L166.625 173.625L173.688 142.5H179.719L168.688 188H163.219L153.844 154.844L153.125 151.375L152.406 154.844L142.688 188H137.219L126.219 142.5H132.219L139.406 173.656ZM198.531 188.625C193.948 188.625 190.219 187.125 187.344 184.125C184.469 181.104 183.031 177.073 183.031 172.031V170.969C183.031 167.615 183.667 164.625 184.938 162C186.229 159.354 188.021 157.292 190.312 155.812C192.625 154.312 195.125 153.562 197.812 153.562C202.208 153.562 205.625 155.01 208.062 157.906C210.5 160.802 211.719 164.948 211.719 170.344V172.75H188.812C188.896 176.083 189.865 178.781 191.719 180.844C193.594 182.885 195.969 183.906 198.844 183.906C200.885 183.906 202.615 183.49 204.031 182.656C205.448 181.823 206.688 180.719 207.75 179.344L211.281 182.094C208.448 186.448 204.198 188.625 198.531 188.625ZM197.812 158.312C195.479 158.312 193.521 159.167 191.938 160.875C190.354 162.562 189.375 164.938 189 168H205.938V167.562C205.771 164.625 204.979 162.354 203.562 160.75C202.146 159.125 200.229 158.312 197.812 158.312ZM224.719 188H218.938V140H224.719V188ZM247.562 183.906C249.625 183.906 251.427 183.281 252.969 182.031C254.51 180.781 255.365 179.219 255.531 177.344H261C260.896 179.281 260.229 181.125 259 182.875C257.771 184.625 256.125 186.021 254.062 187.062C252.021 188.104 249.854 188.625 247.562 188.625C242.958 188.625 239.292 187.094 236.562 184.031C233.854 180.948 232.5 176.74 232.5 171.406V170.438C232.5 167.146 233.104 164.219 234.312 161.656C235.521 159.094 237.25 157.104 239.5 155.688C241.771 154.271 244.448 153.562 247.531 153.562C251.323 153.562 254.469 154.698 256.969 156.969C259.49 159.24 260.833 162.188 261 165.812H255.531C255.365 163.625 254.531 161.833 253.031 160.438C251.552 159.021 249.719 158.312 247.531 158.312C244.594 158.312 242.312 159.375 240.688 161.5C239.083 163.604 238.281 166.656 238.281 170.656V171.75C238.281 175.646 239.083 178.646 240.688 180.75C242.292 182.854 244.583 183.906 247.562 183.906ZM265.969 170.781C265.969 167.469 266.615 164.49 267.906 161.844C269.219 159.198 271.031 157.156 273.344 155.719C275.677 154.281 278.333 153.562 281.312 153.562C285.917 153.562 289.635 155.156 292.469 158.344C295.323 161.531 296.75 165.771 296.75 171.062V171.469C296.75 174.76 296.115 177.719 294.844 180.344C293.594 182.948 291.792 184.979 289.438 186.438C287.104 187.896 284.417 188.625 281.375 188.625C276.792 188.625 273.073 187.031 270.219 183.844C267.385 180.656 265.969 176.438 265.969 171.188V170.781ZM271.781 171.469C271.781 175.219 272.646 178.229 274.375 180.5C276.125 182.771 278.458 183.906 281.375 183.906C284.312 183.906 286.646 182.76 288.375 180.469C290.104 178.156 290.969 174.927 290.969 170.781C290.969 167.073 290.083 164.073 288.312 161.781C286.562 159.469 284.229 158.312 281.312 158.312C278.458 158.312 276.156 159.448 274.406 161.719C272.656 163.99 271.781 167.24 271.781 171.469ZM309.438 154.188L309.594 157.938C312.073 155.021 315.417 153.562 319.625 153.562C324.354 153.562 327.573 155.375 329.281 159C330.406 157.375 331.865 156.062 333.656 155.062C335.469 154.062 337.604 153.562 340.062 153.562C347.479 153.562 351.25 157.49 351.375 165.344V188H345.594V165.688C345.594 163.271 345.042 161.469 343.938 160.281C342.833 159.073 340.979 158.469 338.375 158.469C336.229 158.469 334.448 159.115 333.031 160.406C331.615 161.677 330.792 163.396 330.562 165.562V188H324.75V165.844C324.75 160.927 322.344 158.469 317.531 158.469C313.74 158.469 311.146 160.083 309.75 163.312V188H303.969V154.188H309.438ZM374.156 188.625C369.573 188.625 365.844 187.125 362.969 184.125C360.094 181.104 358.656 177.073 358.656 172.031V170.969C358.656 167.615 359.292 164.625 360.562 162C361.854 159.354 363.646 157.292 365.938 155.812C368.25 154.312 370.75 153.562 373.438 153.562C377.833 153.562 381.25 155.01 383.688 157.906C386.125 160.802 387.344 164.948 387.344 170.344V172.75H364.438C364.521 176.083 365.49 178.781 367.344 180.844C369.219 182.885 371.594 183.906 374.469 183.906C376.51 183.906 378.24 183.49 379.656 182.656C381.073 181.823 382.312 180.719 383.375 179.344L386.906 182.094C384.073 186.448 379.823 188.625 374.156 188.625ZM373.438 158.312C371.104 158.312 369.146 159.167 367.562 160.875C365.979 162.562 365 164.938 364.625 168H381.562V167.562C381.396 164.625 380.604 162.354 379.188 160.75C377.771 159.125 375.854 158.312 373.438 158.312Z" fill="white"/>
</g>
</g>
</svg>
