<svg width="284" height="275" viewBox="0 0 284 275" fill="none" xmlns="http://www.w3.org/2000/svg">
<g id="penAphone">
<g id="Pen">
<path id="Vector" d="M33.0954 205.056H9.83204L5.96945 34.3039C5.96945 27.5081 12.729 22 20.9809 22C29.3206 22 36.0801 27.5082 36.0801 34.2324L33.0954 205.056Z" fill="#333333"/>
<path id="Vector_2" d="M5.96945 36.8791L45.8244 36.8076L46 122.291" stroke="#F7E277" stroke-width="6.1163" stroke-miterlimit="10" stroke-linecap="round"/>
<path id="Vector_3" opacity="0.1" d="M32.2176 212.352H10.3588L0 237.461C0 237.461 10.0954 246.331 13.8702 251.911C15.8893 254.915 17.9084 259.422 19.4008 262.855L22.8244 264C24.229 260.495 26.4237 255.416 28.7939 251.911C32.9199 245.902 42.5763 237.461 42.5763 237.461L32.2176 212.352Z" fill="black"/>
<path id="Vector_4" d="M29.3206 205.056H13.2557L2.89694 230.164C2.89694 230.164 10.0076 235.601 13.7824 241.109C15.8015 244.114 17.8206 248.62 19.313 252.054V233.884C17.4695 233.312 16.0649 231.81 16.0649 230.093C16.0649 227.875 18.2595 226.015 21.0687 226.015C23.8779 226.015 26.0725 227.804 26.0725 230.093C26.0725 231.81 24.7557 233.312 22.8244 233.884V253.198C24.229 249.693 26.4237 244.614 28.7939 241.109C32.9198 235.1 39.6794 230.093 39.6794 230.093L29.3206 205.056Z" fill="#F7E277"/>
<path id="Vector_5" d="M41.084 198.546H2.54582V205.056H41.084V198.546Z" fill="#333333"/>
<path id="Vector_6" d="M33.6222 173.509H9.12979L8.69086 156.126H33.9733L33.6222 173.509Z" fill="#F7E277"/>
</g>
<g id="Phone">
<path id="Vector_7" opacity="0.1" d="M264.682 275H138.318C127.684 275 119 267.975 119 259.211V29.4048C119 20.7137 127.596 13.6161 138.318 13.6161H264.682C275.316 13.6161 284 20.6413 284 29.4048V259.284C284 267.975 275.404 275 264.682 275Z" fill="black"/>
<path id="Vector_8" d="M264.682 262.76H138.318C127.684 262.76 119 255.735 119 246.971V17.1649C119 8.4738 127.596 1.3761 138.318 1.3761H264.682C275.316 1.3761 284 8.40137 284 17.1649V247.044C284 255.662 275.404 262.76 264.682 262.76Z" fill="#E6E6E6"/>
<path id="Vector_9" d="M262.821 254.141H140.267C130.077 254.141 121.836 247.406 121.836 239.077V15.0646C121.836 6.73562 130.077 0 140.267 0H262.91C273.1 0 281.342 6.73562 281.342 15.0646V239.077C281.253 247.406 273.012 254.141 262.821 254.141Z" fill="white"/>
<path id="Vector_10" d="M274.164 24.1178H128.925V230.024H274.164V24.1178Z" fill="#333333"/>
<path id="Vector_11" d="M212.045 13.7609H194.677C194.056 13.7609 193.613 13.3988 193.613 12.8918C193.613 12.3848 194.056 12.0227 194.677 12.0227H212.045C212.665 12.0227 213.108 12.3848 213.108 12.8918C213.197 13.3988 212.665 13.7609 212.045 13.7609Z" fill="#CCCCCC"/>
<path id="Vector_12" d="M231.629 15.4267C233.342 15.4267 234.73 14.2918 234.73 12.8918C234.73 11.4918 233.342 10.3569 231.629 10.3569C229.916 10.3569 228.527 11.4918 228.527 12.8918C228.527 14.2918 229.916 15.4267 231.629 15.4267Z" fill="#CCCCCC"/>
<path id="Vector_13" d="M185.195 14.2678C186.125 14.2678 186.879 13.6518 186.879 12.8918C186.879 12.1318 186.125 11.5157 185.195 11.5157C184.265 11.5157 183.511 12.1318 183.511 12.8918C183.511 13.6518 184.265 14.2678 185.195 14.2678Z" fill="#CCCCCC"/>
<path id="Vector_14" d="M178.726 14.2678C179.656 14.2678 180.41 13.6518 180.41 12.8918C180.41 12.1318 179.656 11.5157 178.726 11.5157C177.796 11.5157 177.042 12.1318 177.042 12.8918C177.042 13.6518 177.796 14.2678 178.726 14.2678Z" fill="#CCCCCC"/>
<path id="Vector_15" d="M210.096 246.682H190.246C187.322 246.682 185.018 244.799 185.018 242.408C185.018 240.018 187.322 238.135 190.246 238.135H210.184C213.108 238.135 215.412 240.018 215.412 242.408C215.412 244.726 213.02 246.682 210.096 246.682Z" fill="#CCCCCC"/>
</g>
</g>
</svg>
