<svg width="301" height="370" viewBox="0 0 301 370" fill="none" xmlns="http://www.w3.org/2000/svg">
<g id="Sheet">
<g id="Group">
<path id="Vector" d="M301 0H0V370H301V0Z" fill="white"/>
<path id="Vector_2" d="M255.251 42.9093H47.0626V50.1104H255.251V42.9093Z" fill="#CCCCCC"/>
<path id="Vector_3" d="M255.251 63.6958H47.0626V70.8969H255.251V63.6958Z" fill="#CCCCCC"/>
<path id="Vector_4" d="M255.251 84.5566H47.0626V91.7577H255.251V84.5566Z" fill="#CCCCCC"/>
<path id="Vector_5" d="M138.406 126.204H47.0626V141.274H138.406V126.204Z" fill="#F15A24"/>
<path id="Vector_6" d="M138.406 322.562H47.0626V329.763H138.406V322.562Z" fill="#CCCCCC"/>
<path id="Vector_7" d="M241.573 166.366H47.0626V173.567H241.573V166.366Z" fill="#CCCCCC"/>
<path id="Vector_8" d="M215.53 189.529H47.0626V196.73H215.53V189.529Z" fill="#CCCCCC"/>
<path id="Vector_9" d="M259.965 212.616H47.0626V219.817H259.965V212.616Z" fill="#CCCCCC"/>
<path id="Vector_10" d="M234.695 235.704H47.0626V242.905H234.695V235.704Z" fill="#CCCCCC"/>
<path id="Vector_11" d="M248.837 258.866H47.0626V266.067H248.837V258.866Z" fill="#CCCCCC"/>
<path id="Vector_12" d="M190.569 281.954H47.0626V289.155H190.569V281.954Z" fill="#CCCCCC"/>
</g>
</g>
</svg>
