<svg width="1920" height="1080" viewBox="0 0 1920 1080" fill="none" xmlns="http://www.w3.org/2000/svg">
<g clip-path="url(#clip0_2_2)">
<path d="M682.939 610.121C1196.07 752.988 1735.93 519.439 1888.75 88.4754C2041.58 -342.488 1749.49 -807.67 1236.37 -950.538C723.238 -1093.4 183.377 -859.856 30.5518 -428.892C-122.273 2.07165 169.811 467.254 682.939 610.121Z" fill="#EED300"/>
<path d="M680.072 507.112C1193.2 649.979 1735.03 410.872 1890.29 -26.9496C2045.55 -464.771 1755.43 -935.512 1242.3 -1078.38C729.176 -1221.25 187.344 -982.139 32.0873 -544.317C-123.169 -106.496 166.943 364.245 680.072 507.112Z" fill="#FFE72F"/>
<path d="M680.995 391.86C1194 535.096 1736.88 291.994 1893.55 -151.122C2050.22 -594.239 1761.35 -1069.57 1248.35 -1212.81C735.349 -1356.04 192.472 -1112.94 35.8006 -669.825C-120.87 -226.708 167.993 248.625 680.995 391.86Z" fill="url(#paint0_linear_2_2)"/>
</g>
<defs>
<linearGradient id="paint0_linear_2_2" x1="129" y1="13.9999" x2="2026.19" y2="602.263" gradientUnits="userSpaceOnUse">
<stop offset="0.0184935" stop-color="#F2F1E5"/>
<stop offset="0.239387" stop-color="#FFFDEF" stop-opacity="0.741008"/>
<stop offset="0.623857" stop-color="#FFFDED" stop-opacity="0.339872"/>
<stop offset="0.758028" stop-color="#FFFDED" stop-opacity="0.339872"/>
</linearGradient>
<clipPath id="clip0_2_2">
<rect width="1920" height="1080" fill="white"/>
</clipPath>
</defs>
</svg>
